<svg width="168" height="51" viewBox="0 0 168 51" fill="none" xmlns="http://www.w3.org/2000/svg">
<rect width="51" height="51" rx="25.5" fill="#FFC857"/>
<path d="M10.9093 29.5222L11.9978 29.3952C12.0476 29.3894 12.0913 29.4283 12.0913 29.4784V31.5444C12.0913 31.589 12.0563 31.6258 12.0117 31.628L10.9232 31.6825C10.8754 31.6849 10.8353 31.6467 10.8353 31.5988V29.6053C10.8353 29.5629 10.8671 29.5271 10.9093 29.5222Z" fill="#333333"/>
<path d="M12.5419 29.2788L13.6722 29.1442C13.722 29.1383 13.7659 29.1772 13.7659 29.2274V31.4155C13.7659 31.4601 13.7309 31.4968 13.6864 31.4991L12.556 31.5568C12.5082 31.5592 12.468 31.5211 12.468 31.4732V29.362C12.468 29.3196 12.4998 29.2838 12.5419 29.2788Z" fill="#333333"/>
<path d="M14.2586 29.0385L15.5145 28.8927C15.5643 28.887 15.6079 28.9258 15.6079 28.9759V31.3271C15.6079 31.3717 15.5729 31.4085 15.5284 31.4107L14.2724 31.4732C14.2246 31.4755 14.1845 31.4374 14.1845 31.3895V29.1217C14.1845 29.0791 14.2164 29.0434 14.2586 29.0385Z" fill="#333333"/>
<path d="M16.0587 28.756L17.3984 28.5997C17.4482 28.5939 17.4919 28.6328 17.4919 28.6829V31.1969C17.4919 31.2416 17.4569 31.2783 17.4123 31.2806L16.0726 31.3475C16.0248 31.3499 15.9847 31.3118 15.9847 31.2639V28.8392C15.9847 28.7967 16.0165 28.761 16.0587 28.756Z" fill="#333333"/>
<path d="M17.985 28.5106L19.4503 28.348C19.4999 28.3425 19.5432 28.3813 19.5432 28.4312V31.027C19.5432 31.0717 19.5081 31.1085 19.4635 31.1106L17.9982 31.1803C17.9505 31.1826 17.9105 31.1445 17.9105 31.0967V28.5938C17.9105 28.5511 17.9426 28.5153 17.985 28.5106Z" fill="#333333"/>
<path d="M20.037 28.2286L21.7116 28.0542C21.761 28.0491 21.804 28.0878 21.804 28.1375V30.8966C21.804 30.9414 21.7687 30.9783 21.724 30.9802L20.0494 31.055C20.0017 31.0571 19.9619 31.019 19.9619 30.9713V28.3119C19.9619 28.269 19.9943 28.233 20.037 28.2286Z" fill="#333333"/>
<path d="M22.2974 27.9041L24.0139 27.7196C24.0634 27.7143 24.1065 27.7531 24.1065 27.8029V30.7247C24.1065 30.7694 24.0714 30.8063 24.0267 30.8083L22.3102 30.8874C22.2625 30.8896 22.2226 30.8515 22.2226 30.8038V27.9874C22.2226 27.9446 22.2549 27.9087 22.2974 27.9041Z" fill="#333333"/>
<path d="M24.1484 31.7334V31.3155C24.1484 31.2672 24.1076 31.2289 24.0594 31.232L10.3617 32.0843C10.3609 32.2579 10.3603 32.4332 10.3597 32.6079L24.0695 31.817C24.1138 31.8144 24.1484 31.7778 24.1484 31.7334Z" fill="#1F1F1F"/>
<path d="M24.062 32.9665L10.3575 33.4033C10.3571 33.5914 10.3568 33.774 10.3565 33.9476L24.0667 33.6146C24.1121 33.6135 24.1484 33.5764 24.1484 33.5309V33.0502C24.1484 33.0029 24.1093 32.965 24.062 32.9665Z" fill="#1F1F1F"/>
<path d="M13.1312 34.7849H10.3555C10.3553 35.0255 10.3553 35.2142 10.3552 35.3291H13.1023C13.1461 35.3291 13.1824 35.2954 13.1858 35.2518L13.2147 34.875C13.2184 34.8264 13.18 34.7849 13.1312 34.7849Z" fill="#1F1F1F"/>
<path d="M15.6288 34.8275L24.0653 34.8889C24.1113 34.8893 24.1484 34.9267 24.1484 34.9727V35.4945C24.1484 35.5416 24.1097 35.5794 24.0626 35.5782L15.7079 35.3726C15.6693 35.3717 15.6363 35.3444 15.6281 35.3066L15.5463 34.929C15.535 34.8765 15.5751 34.8271 15.6288 34.8275Z" fill="#1F1F1F"/>
<path d="M24.7746 32.3751L25.5281 32.3586C25.5751 32.3576 25.6137 32.3953 25.6137 32.4423V37.7155C25.6137 37.7617 25.5762 37.7992 25.53 37.7992H24.7764C24.7301 37.7992 24.6927 37.7617 24.6927 37.7155V32.4588C24.6927 32.4133 24.729 32.3761 24.7746 32.3751Z" fill="#1F1F1F"/>
<path d="M26.0305 32.3751L26.7841 32.3586C26.831 32.3576 26.8696 32.3953 26.8696 32.4423V37.7155C26.8696 37.7617 26.8322 37.7992 26.7859 37.7992H26.0323C25.9861 37.7992 25.9486 37.7617 25.9486 37.7155V32.4588C25.9486 32.4133 25.985 32.3761 26.0305 32.3751Z" fill="#1F1F1F"/>
<path d="M24.7667 27.641L25.5203 27.5531C25.57 27.5473 25.6137 27.5862 25.6137 27.6363V31.6902C25.6137 31.735 25.5785 31.7718 25.5338 31.7738L24.7802 31.8084C24.7325 31.8106 24.6927 31.7725 24.6927 31.7248V27.7242C24.6927 27.6817 24.7245 27.6459 24.7667 27.641Z" fill="#1F1F1F"/>
<path fill-rule="evenodd" clip-rule="evenodd" d="M28.3573 24.8838C28.3573 24.8838 30.1142 24.1302 32.7936 24.4651C33.9658 24.6745 35.1589 24.8629 36.207 25.8676C36.6429 26.2697 36.6573 27.1099 36.6502 27.3759C36.649 27.4219 36.6095 27.456 36.5636 27.4529L28.2735 26.8933C28.2735 26.8933 27.3301 26.8305 27.1417 27.0398C27.0579 27.1329 26.8329 27.3787 26.8329 27.3787L26.0223 27.4775C25.9802 27.4826 25.9486 27.5183 25.9486 27.5606V31.7246C25.9486 31.7725 25.9886 31.8106 26.0363 31.8083L26.7899 31.7723C26.8345 31.7702 26.8696 31.7334 26.8696 31.6887V30.1518C26.8696 30.1084 26.8363 30.0718 26.7947 30.0593C26.7475 30.0451 26.6867 30.0187 26.6394 29.9704C26.549 29.878 26.5347 29.6564 26.5347 29.6564V28.0865C26.5347 28.0865 26.5189 27.8785 26.6394 27.7725C26.6824 27.7346 26.6853 27.6869 26.7153 27.671C26.7202 27.6684 26.7259 27.6676 26.7316 27.667L26.9534 27.6469L27.2914 27.6103C27.3168 27.6069 27.3392 27.5922 27.3524 27.5703L27.3929 27.4794C27.4251 27.4257 27.4965 27.4592 27.5295 27.5125L27.7167 27.815C27.7249 27.8283 27.7293 27.8435 27.7293 27.8591V29.9994C27.7293 30.0211 27.7209 30.0419 27.7065 30.0582C27.6556 30.1159 27.5358 30.2635 27.52 30.389C27.4829 30.6829 27.7052 30.9752 28.0014 30.9752H29.0846C29.1634 30.9752 29.2004 31.0766 29.142 31.1295C28.9887 31.2681 28.7736 31.4782 28.6503 31.6659C28.4198 32.017 28.3072 32.6007 28.2953 32.6649C28.2946 32.6689 28.2942 32.6728 28.2941 32.6769L28.2536 34.1418C28.253 34.1648 28.2618 34.1871 28.278 34.2033L28.399 34.3244L28.6441 34.059C28.6482 34.0545 28.6528 34.0505 28.6579 34.047L28.9223 33.8639C28.9223 33.8639 28.8164 32.7754 28.9851 32.2311C29.0913 31.9262 29.3117 31.7102 29.549 31.5586C29.9634 31.2941 30.4294 31.2264 30.4294 31.2264H35.4034C35.4079 31.2264 35.412 31.2267 35.4164 31.2274C35.5534 31.2505 37.8938 31.6599 39.0327 32.8382C39.2264 32.994 39.1683 34.6371 39.1594 34.8637C39.1587 34.881 39.1632 34.8974 39.1739 34.9112C39.1963 34.9401 39.2398 34.9885 39.2839 34.9942C39.3127 34.9979 39.3487 34.9843 39.3748 34.9716C39.3974 34.9606 39.411 34.9378 39.4137 34.9128L39.457 34.5088C39.4658 34.4268 39.5334 34.3626 39.6154 34.3719C39.6654 34.3776 39.7202 34.3883 39.7653 34.4081C40.0637 34.5386 40.279 34.9349 40.3224 35.0199C40.328 35.0307 40.3306 35.0424 40.3308 35.0545L40.3328 35.2035L40.3453 36.1246L40.3505 36.5038C40.3511 36.5491 40.3156 36.5867 40.2704 36.5886L31.2309 36.9798C31.1909 36.9816 31.1554 36.9557 31.1447 36.9171C31.0403 36.5388 30.4562 34.66 29.1946 34.8058C28.1291 34.929 27.6872 35.7478 27.4779 36.7735C27.4075 37.1184 27.3813 38.1727 27.3749 38.4854C27.3739 38.5335 27.3328 38.5707 27.2848 38.5672L24.2597 38.3469C24.2305 38.3447 24.2045 38.3274 24.1912 38.3013L23.5855 37.1098C23.5719 37.083 23.5451 37.0656 23.5151 37.0641L15.7825 36.6723C15.7426 36.6703 15.7097 36.6415 15.7028 36.6021C15.6416 36.2534 15.3134 34.6552 14.4369 34.6384C13.4785 34.6199 13.2018 36.1109 13.1494 36.4674C13.143 36.5105 13.1057 36.5423 13.0621 36.5412L10.8554 36.4826C10.81 36.4814 10.7739 36.4443 10.7739 36.3989V35.5385C10.7739 35.4922 10.7364 35.4547 10.6902 35.4547H10.439C10.3927 35.4547 10.3552 35.42 10.3552 35.3737L10.3552 35.3332L10.3552 35.3291C10.3553 35.2142 10.3553 35.0255 10.3555 34.7849C10.3557 34.5489 10.356 34.263 10.3565 33.9476C10.3568 33.774 10.3571 33.5914 10.3575 33.4033C10.3581 33.1456 10.3588 32.8775 10.3597 32.6079C10.3603 32.4332 10.3609 32.2579 10.3617 32.0843C10.3671 30.8041 10.3772 29.6188 10.3957 29.4889C10.4376 29.1959 10.4903 28.9238 10.8158 28.5051C11.1087 28.1283 11.5261 28.0446 11.5261 28.0446L28.3573 24.8838ZM32.5597 29.4273L29.9258 30.4728L32.6398 30.5538C32.6888 30.5553 32.7285 30.5145 32.7259 30.4656L32.6742 29.5006C32.6711 29.4434 32.6129 29.4061 32.5597 29.4273ZM36.0597 28.0847L33.2901 29.153C33.2562 29.1661 33.2346 29.1996 33.2367 29.2359L33.3125 30.5431C33.315 30.5863 33.35 30.6204 33.3932 30.6219L36.2996 30.7208C36.3498 30.7225 36.3902 30.6799 36.3859 30.6299L36.1733 28.1557C36.1685 28.1001 36.1117 28.0646 36.0597 28.0847ZM29.3396 39.6412C29.7789 39.6412 30.135 38.9946 30.135 38.1969C30.135 37.3992 29.7789 36.7525 29.3396 36.7525C28.9003 36.7525 28.5442 37.3992 28.5442 38.1969C28.5442 38.9946 28.9003 39.6412 29.3396 39.6412ZM14.4356 38.3016C14.7824 38.3016 15.0636 37.7861 15.0636 37.1503C15.0636 36.5144 14.7824 35.999 14.4356 35.999C14.0888 35.999 13.8076 36.5144 13.8076 37.1503C13.8076 37.7861 14.0888 38.3016 14.4356 38.3016Z" fill="#1F1F1F"/>
<path fill-rule="evenodd" clip-rule="evenodd" d="M30.6375 25.0072V26.5111C30.6375 26.5594 30.5968 26.5977 30.5486 26.5947L28.6739 26.4775C28.6453 26.4757 28.6197 26.4594 28.6084 26.433C28.5583 26.3159 28.4418 25.9655 28.6253 25.5595C28.6271 25.5556 28.6291 25.5519 28.6315 25.5484C29.0151 24.9748 30.2314 24.9275 30.5568 24.9252C30.6022 24.9249 30.6375 24.9618 30.6375 25.0072ZM29.9257 26.2444C30.1569 26.2444 30.3444 26.057 30.3444 25.8257C30.3444 25.5945 30.1569 25.4071 29.9257 25.4071C29.6945 25.4071 29.5071 25.5945 29.5071 25.8257C29.5071 26.057 29.6945 26.2444 29.9257 26.2444Z" fill="#1F1F1F"/>
<path fill-rule="evenodd" clip-rule="evenodd" d="M34.535 25.4273L34.5909 26.8804C34.5925 26.9234 34.6265 26.9581 34.6694 26.9607L36.234 27.0561C36.2772 27.0588 36.3149 27.0282 36.318 26.985C36.3299 26.8217 36.3323 26.4264 36.1218 26.1188C35.778 25.6374 34.9259 25.4102 34.6323 25.3444C34.5801 25.3327 34.5329 25.3739 34.535 25.4273ZM35.2426 26.7468C35.4738 26.7468 35.6612 26.5593 35.6612 26.3281C35.6612 26.0969 35.4738 25.9095 35.2426 25.9095C35.0114 25.9095 34.8239 26.0969 34.8239 26.3281C34.8239 26.5593 35.0114 26.7468 35.2426 26.7468Z" fill="#1F1F1F"/>
<path d="M31.1261 25.1428L34.1219 25.4007C34.1642 25.4044 34.1971 25.4391 34.1984 25.4815L34.2349 26.6324C34.2365 26.6823 34.1944 26.7224 34.1447 26.7185L31.1124 26.4807C31.0688 26.4773 31.0352 26.4409 31.0352 26.3972V25.2262C31.0352 25.1771 31.0772 25.1386 31.1261 25.1428Z" fill="white"/>
<path d="M33.2901 29.153L36.0597 28.0847C36.1117 28.0646 36.1685 28.1001 36.1733 28.1557L36.3859 30.6299C36.3902 30.6799 36.3498 30.7225 36.2996 30.7208L33.3932 30.6219C33.35 30.6204 33.315 30.5863 33.3125 30.5431L33.2367 29.2359C33.2346 29.1996 33.2562 29.1661 33.2901 29.153Z" fill="white"/>
<path d="M29.9258 30.4728L32.5597 29.4273C32.6129 29.4061 32.6711 29.4434 32.6742 29.5006L32.7259 30.4656C32.7285 30.5145 32.6888 30.5553 32.6398 30.5538L29.9258 30.4728Z" fill="white"/>
<path d="M30.4294 31.2264C30.4294 31.2264 29.9634 31.2941 29.549 31.5586L33.7355 32.7544L30.4294 31.2264Z" fill="white"/>
<path d="M28.6441 34.059L28.399 34.3244H28.9119C28.9188 34.3244 28.9249 34.3237 28.9316 34.3221C29.0442 34.2944 30.1539 34.0267 30.8887 34.0522C31.8319 34.085 33.2331 34.6384 33.2331 34.6384C33.2331 34.6384 32.1441 33.7023 31.2864 33.5289C30.3724 33.3441 28.9223 33.8639 28.9223 33.8639L28.6579 34.047C28.6528 34.0505 28.6482 34.0545 28.6441 34.059Z" fill="white"/>
<path d="M31.6227 35.3929L31.7519 36.2491C31.7611 36.3101 31.8131 36.3553 31.8748 36.356L33.5666 36.3742C33.6441 36.375 33.7039 36.3061 33.6921 36.2295L33.5632 35.3915C33.5539 35.3312 33.5027 35.2863 33.4417 35.285L31.7496 35.2486C31.6717 35.2469 31.611 35.3159 31.6227 35.3929Z" fill="white"/>
<path d="M40.3328 35.2035L39.5797 35.3134C39.518 35.3225 39.4723 35.3754 39.4723 35.4377V35.9267C39.4723 35.9914 39.5215 36.0456 39.5859 36.0517L40.3453 36.1246L40.3328 35.2035Z" fill="white"/>
<path d="M28.3573 24.8838L11.5261 28.0446C11.5261 28.0446 11.1087 28.1283 10.8158 28.5051L26.8501 26.0141L27.3124 25.8734C27.325 25.8696 27.3365 25.8629 27.346 25.8538L28.3573 24.8838Z" fill="white"/>
<path fill-rule="evenodd" clip-rule="evenodd" d="M24.1484 31.3155V31.7334C24.1484 31.7778 24.1138 31.8144 24.0695 31.817L10.3597 32.6079C10.3588 32.8775 10.3581 33.1456 10.3575 33.4033L24.062 32.9665C24.1093 32.965 24.1484 33.0029 24.1484 33.0502V33.5309C24.1484 33.5764 24.1121 33.6135 24.0667 33.6146L10.3565 33.9476C10.356 34.263 10.3557 34.5489 10.3555 34.7849H13.1312C13.18 34.7849 13.2184 34.8264 13.2147 34.875L13.1858 35.2518C13.1824 35.2954 13.1461 35.3291 13.1023 35.3291H10.3552L10.3552 35.3332L10.3552 35.3737C10.3552 35.42 10.3927 35.4547 10.439 35.4547H10.6902C10.7364 35.4547 10.7739 35.4922 10.7739 35.5385V36.3989C10.7739 36.4443 10.81 36.4814 10.8554 36.4826L13.0621 36.5412C13.1057 36.5423 13.143 36.5105 13.1494 36.4674C13.2018 36.1109 13.4785 34.6199 14.4369 34.6384C15.3134 34.6552 15.6416 36.2534 15.7028 36.6021C15.7097 36.6415 15.7426 36.6703 15.7825 36.6723L23.5151 37.0641C23.5451 37.0656 23.5719 37.083 23.5855 37.1098L24.1912 38.3013C24.2045 38.3274 24.2305 38.3447 24.2597 38.3469L27.2848 38.5672C27.3328 38.5707 27.3739 38.5335 27.3749 38.4854C27.3813 38.1727 27.4075 37.1184 27.4779 36.7735C27.6872 35.7478 28.1291 34.929 29.1946 34.8058C30.4562 34.66 31.0403 36.5388 31.1447 36.9171C31.1554 36.9557 31.1909 36.9816 31.2309 36.9798L40.2704 36.5886C40.3156 36.5867 40.3511 36.5491 40.3505 36.5038L40.3453 36.1246L39.5859 36.0517C39.5215 36.0456 39.4723 35.9914 39.4723 35.9267V35.4377C39.4723 35.3754 39.518 35.3225 39.5797 35.3134L40.3328 35.2035L40.3308 35.0545C40.3306 35.0424 40.328 35.0307 40.3224 35.0199C40.279 34.9349 40.0637 34.5386 39.7653 34.4081C39.7202 34.3883 39.6654 34.3776 39.6154 34.3719C39.5334 34.3626 39.4658 34.4268 39.457 34.5088L39.4137 34.9128C39.411 34.9378 39.3974 34.9606 39.3748 34.9716C39.3487 34.9843 39.3127 34.9979 39.2839 34.9942C39.2398 34.9885 39.1963 34.9401 39.1739 34.9112C39.1632 34.8974 39.1587 34.881 39.1594 34.8637C39.1683 34.6371 39.2264 32.994 39.0327 32.8382C37.8938 31.6599 35.5534 31.2505 35.4164 31.2274C35.412 31.2267 35.4079 31.2264 35.4034 31.2264H30.4294L33.7355 32.7544L29.549 31.5586C29.3117 31.7102 29.0913 31.9262 28.9851 32.2311C28.8164 32.7754 28.9223 33.8639 28.9223 33.8639C28.9223 33.8639 30.3724 33.3441 31.2864 33.5289C32.1441 33.7023 33.2331 34.6384 33.2331 34.6384C33.2331 34.6384 31.8319 34.085 30.8887 34.0522C30.1539 34.0267 29.0442 34.2944 28.9316 34.3221C28.9249 34.3237 28.9188 34.3244 28.9119 34.3244H28.399L28.278 34.2033C28.2618 34.1871 28.253 34.1648 28.2536 34.1418L28.2941 32.6769C28.2942 32.6728 28.2946 32.6689 28.2953 32.6649C28.3072 32.6007 28.4198 32.017 28.6503 31.6659C28.7736 31.4782 28.9887 31.2681 29.142 31.1295C29.2004 31.0766 29.1634 30.9752 29.0846 30.9752H28.0014C27.7052 30.9752 27.4829 30.6829 27.52 30.389C27.5358 30.2635 27.6556 30.1159 27.7065 30.0582C27.7209 30.0419 27.7293 30.0211 27.7293 29.9994V27.8591C27.7293 27.8435 27.7249 27.8283 27.7167 27.815L27.5295 27.5125C27.4965 27.4592 27.4251 27.4257 27.3929 27.4794L27.3524 27.5703C27.3392 27.5922 27.3168 27.6069 27.2914 27.6103L26.9534 27.6469L26.7316 27.667C26.7259 27.6676 26.7202 27.6684 26.7153 27.671C26.6853 27.6869 26.6824 27.7346 26.6394 27.7725C26.5189 27.8785 26.5347 28.0865 26.5347 28.0865V29.6564C26.5347 29.6564 26.549 29.878 26.6394 29.9704C26.6867 30.0187 26.7475 30.0451 26.7947 30.0593C26.8363 30.0718 26.8696 30.1084 26.8696 30.1518V31.6887C26.8696 31.7334 26.8345 31.7702 26.7899 31.7723L26.0363 31.8083C25.9886 31.8106 25.9486 31.7725 25.9486 31.7246V27.5606C25.9486 27.5183 25.9802 27.4826 26.0223 27.4775L26.8329 27.3787C26.8329 27.3787 27.0579 27.1329 27.1417 27.0398C27.3301 26.8305 28.2735 26.8933 28.2735 26.8933L36.5636 27.4529C36.6095 27.456 36.649 27.4219 36.6502 27.3759C36.6573 27.1099 36.6429 26.2697 36.207 25.8676C35.1589 24.8629 33.9658 24.6745 32.7936 24.4651C30.1142 24.1302 28.3573 24.8838 28.3573 24.8838L27.346 25.8538C27.3365 25.8629 27.325 25.8696 27.3124 25.8734L26.8501 26.0141L10.8158 28.5051C10.4903 28.9238 10.4376 29.1959 10.3957 29.4889C10.3772 29.6188 10.3671 30.8041 10.3617 32.0843L24.0594 31.232C24.1076 31.2289 24.1484 31.2672 24.1484 31.3155ZM11.9978 29.3952L10.9093 29.5222C10.8671 29.5271 10.8353 29.5629 10.8353 29.6053V31.5988C10.8353 31.6467 10.8754 31.6849 10.9232 31.6825L12.0117 31.628C12.0563 31.6258 12.0913 31.589 12.0913 31.5444V29.4784C12.0913 29.4283 12.0476 29.3894 11.9978 29.3952ZM13.6722 29.1442L12.5419 29.2788C12.4998 29.2838 12.468 29.3196 12.468 29.362V31.4732C12.468 31.5211 12.5082 31.5592 12.556 31.5568L13.6864 31.4991C13.7309 31.4968 13.7659 31.4601 13.7659 31.4155V29.2274C13.7659 29.1772 13.722 29.1383 13.6722 29.1442ZM15.5145 28.8927L14.2586 29.0385C14.2164 29.0434 14.1845 29.0791 14.1845 29.1217V31.3895C14.1845 31.4374 14.2246 31.4755 14.2724 31.4732L15.5284 31.4107C15.5729 31.4085 15.6079 31.3717 15.6079 31.3271V28.9759C15.6079 28.9258 15.5643 28.887 15.5145 28.8927ZM17.3984 28.5997L16.0587 28.756C16.0165 28.761 15.9847 28.7967 15.9847 28.8392V31.2639C15.9847 31.3118 16.0248 31.3499 16.0726 31.3475L17.4123 31.2806C17.4569 31.2783 17.4919 31.2416 17.4919 31.1969V28.6829C17.4919 28.6328 17.4482 28.5939 17.3984 28.5997ZM19.4503 28.348L17.985 28.5106C17.9426 28.5153 17.9105 28.5511 17.9105 28.5938V31.0967C17.9105 31.1445 17.9505 31.1826 17.9982 31.1803L19.4635 31.1106C19.5081 31.1085 19.5432 31.0717 19.5432 31.027V28.4312C19.5432 28.3813 19.4999 28.3425 19.4503 28.348ZM21.7116 28.0542L20.037 28.2286C19.9943 28.233 19.9619 28.269 19.9619 28.3119V30.9713C19.9619 31.019 20.0017 31.0571 20.0494 31.055L21.724 30.9802C21.7687 30.9783 21.804 30.9414 21.804 30.8966V28.1375C21.804 28.0878 21.761 28.0491 21.7116 28.0542ZM24.0139 27.7196L22.2974 27.9041C22.2549 27.9087 22.2226 27.9446 22.2226 27.9874V30.8038C22.2226 30.8515 22.2625 30.8896 22.3102 30.8874L24.0267 30.8083C24.0714 30.8063 24.1065 30.7694 24.1065 30.7247V27.8029C24.1065 27.7531 24.0634 27.7143 24.0139 27.7196ZM25.5203 27.5531L24.7667 27.641C24.7245 27.6459 24.6927 27.6817 24.6927 27.7242V31.7248C24.6927 31.7725 24.7325 31.8106 24.7802 31.8084L25.5338 31.7738C25.5785 31.7718 25.6137 31.735 25.6137 31.6902V27.6363C25.6137 27.5862 25.57 27.5473 25.5203 27.5531ZM25.5281 32.3586L24.7746 32.3751C24.729 32.3761 24.6927 32.4133 24.6927 32.4588V37.7155C24.6927 37.7617 24.7301 37.7992 24.7764 37.7992H25.53C25.5762 37.7992 25.6137 37.7617 25.6137 37.7155V32.4423C25.6137 32.3953 25.5751 32.3576 25.5281 32.3586ZM26.7841 32.3586L26.0305 32.3751C25.985 32.3761 25.9486 32.4133 25.9486 32.4588V37.7155C25.9486 37.7617 25.9861 37.7992 26.0323 37.7992H26.7859C26.8322 37.7992 26.8696 37.7617 26.8696 37.7155V32.4423C26.8696 32.3953 26.831 32.3576 26.7841 32.3586ZM24.0653 34.8889L15.6288 34.8275C15.5751 34.8271 15.535 34.8765 15.5463 34.929L15.6281 35.3066C15.6363 35.3444 15.6693 35.3717 15.7079 35.3726L24.0626 35.5782C24.1097 35.5794 24.1484 35.5416 24.1484 35.4945V34.9727C24.1484 34.9267 24.1113 34.8893 24.0653 34.8889ZM34.1219 25.4007L31.1261 25.1428C31.0772 25.1386 31.0352 25.1771 31.0352 25.2262V26.3972C31.0352 26.4409 31.0688 26.4773 31.1124 26.4807L34.1447 26.7185C34.1944 26.7224 34.2365 26.6823 34.2349 26.6324L34.1984 25.4815C34.1971 25.4391 34.1642 25.4044 34.1219 25.4007ZM31.7519 36.2491L31.6227 35.3929C31.611 35.3159 31.6717 35.2469 31.7496 35.2486L33.4417 35.285C33.5027 35.2863 33.5539 35.3312 33.5632 35.3915L33.6921 36.2295C33.7039 36.3061 33.6441 36.375 33.5666 36.3742L31.8748 36.356C31.8131 36.3553 31.7611 36.3101 31.7519 36.2491ZM34.8031 33.2149C34.9496 33.0893 35.2217 33.1103 35.2217 33.1103H38.5709C38.5709 33.1103 38.7593 33.1103 38.8431 33.2359C38.9268 33.3615 38.9268 33.4871 38.9268 33.4871V35.9362C38.9268 35.9362 38.9268 36.1106 38.8012 36.2083C38.6756 36.306 38.4454 36.292 38.4454 36.292L35.0446 36.3338C35.0371 36.3338 35.0298 36.333 35.0226 36.3309C34.9771 36.3181 34.7992 36.2639 34.7403 36.1874C34.6661 36.0911 34.6775 35.8943 34.6775 35.8943L34.6566 33.6336C34.6566 33.6336 34.6566 33.3405 34.8031 33.2149ZM30.6375 26.5111V25.0072C30.6375 24.9618 30.6022 24.9249 30.5568 24.9252C30.2314 24.9275 29.0151 24.9748 28.6315 25.5484C28.6291 25.5519 28.6271 25.5556 28.6253 25.5595C28.4418 25.9655 28.5583 26.3159 28.6084 26.433C28.6197 26.4594 28.6453 26.4757 28.6739 26.4775L30.5486 26.5947C30.5968 26.5977 30.6375 26.5594 30.6375 26.5111ZM34.5909 26.8804L34.535 25.4273C34.5329 25.3739 34.5801 25.3327 34.6323 25.3444C34.9259 25.4102 35.778 25.6374 36.1218 26.1188C36.3323 26.4264 36.3299 26.8217 36.318 26.985C36.3149 27.0282 36.2772 27.0588 36.234 27.0561L34.6694 26.9607C34.6265 26.9581 34.5925 26.9234 34.5909 26.8804Z" fill="#FFC857"/>
<path d="M30.3444 25.8257C30.3444 26.057 30.1569 26.2444 29.9257 26.2444C29.6945 26.2444 29.5071 26.057 29.5071 25.8257C29.5071 25.5945 29.6945 25.4071 29.9257 25.4071C30.1569 25.4071 30.3444 25.5945 30.3444 25.8257Z" fill="#EF6C00"/>
<path d="M35.6612 26.3281C35.6612 26.5593 35.4738 26.7468 35.2426 26.7468C35.0114 26.7468 34.8239 26.5593 34.8239 26.3281C34.8239 26.0969 35.0114 25.9095 35.2426 25.9095C35.4738 25.9095 35.6612 26.0969 35.6612 26.3281Z" fill="#EF6C00"/>
<path d="M15.0636 37.1503C15.0636 37.7861 14.7824 38.3016 14.4356 38.3016C14.0888 38.3016 13.8076 37.7861 13.8076 37.1503C13.8076 36.5144 14.0888 35.999 14.4356 35.999C14.7824 35.999 15.0636 36.5144 15.0636 37.1503Z" fill="white"/>
<path d="M30.135 38.1969C30.135 38.9946 29.7789 39.6412 29.3396 39.6412C28.9003 39.6412 28.5442 38.9946 28.5442 38.1969C28.5442 37.3992 28.9003 36.7525 29.3396 36.7525C29.7789 36.7525 30.135 37.3992 30.135 38.1969Z" fill="white"/>
<path d="M35.1799 33.8011V33.9894C35.1799 34.0357 35.2174 34.0732 35.2636 34.0732H38.3616C38.4079 34.0732 38.4454 34.0357 38.4454 33.9894V33.8011C38.4454 33.7548 38.4079 33.7173 38.3616 33.7173H35.2636C35.2174 33.7173 35.1799 33.7548 35.1799 33.8011Z" fill="#FFC857"/>
<path d="M35.1799 34.6593V34.8058C35.1799 34.8521 35.2174 34.8896 35.2636 34.8896H38.3616C38.4079 34.8896 38.4454 34.8521 38.4454 34.8058V34.6593C38.4454 34.613 38.4079 34.5756 38.3616 34.5756H35.2636C35.2174 34.5756 35.1799 34.613 35.1799 34.6593Z" fill="#FFC857"/>
<path fill-rule="evenodd" clip-rule="evenodd" d="M35.2217 33.1103C35.2217 33.1103 34.9496 33.0893 34.8031 33.2149C34.6566 33.3405 34.6566 33.6336 34.6566 33.6336L34.6775 35.8943C34.6775 35.8943 34.6661 36.0911 34.7403 36.1874C34.7992 36.2639 34.9771 36.3181 35.0226 36.3309C35.0298 36.333 35.0371 36.3338 35.0446 36.3338L38.4454 36.292C38.4454 36.292 38.6756 36.306 38.8012 36.2083C38.9268 36.1106 38.9268 35.9362 38.9268 35.9362V33.4871C38.9268 33.4871 38.9268 33.3615 38.8431 33.2359C38.7593 33.1103 38.5709 33.1103 38.5709 33.1103H35.2217ZM35.1799 33.9894V33.8011C35.1799 33.7548 35.2174 33.7173 35.2636 33.7173H38.3616C38.4079 33.7173 38.4454 33.7548 38.4454 33.8011V33.9894C38.4454 34.0357 38.4079 34.0732 38.3616 34.0732H35.2636C35.2174 34.0732 35.1799 34.0357 35.1799 33.9894ZM35.1799 34.8058V34.6593C35.1799 34.613 35.2174 34.5756 35.2636 34.5756H38.3616C38.4079 34.5756 38.4454 34.613 38.4454 34.6593V34.8058C38.4454 34.8521 38.4079 34.8896 38.3616 34.8896H35.2636C35.2174 34.8896 35.1799 34.8521 35.1799 34.8058ZM35.1799 35.7048V35.4741C35.1799 35.4284 35.2164 35.3912 35.262 35.3904L38.36 35.3308C38.4069 35.3299 38.4454 35.3676 38.4454 35.4145V35.6651C38.4454 35.7109 38.4085 35.7483 38.3627 35.7488L35.2647 35.7886C35.218 35.7892 35.1799 35.7515 35.1799 35.7048Z" fill="#1F1F1F"/>
<path d="M35.1799 35.4741V35.7048C35.1799 35.7515 35.218 35.7892 35.2647 35.7886L38.3627 35.7488C38.4085 35.7483 38.4454 35.7109 38.4454 35.6651V35.4145C38.4454 35.3676 38.4069 35.3299 38.36 35.3308L35.262 35.3904C35.2164 35.3912 35.1799 35.4284 35.1799 35.4741Z" fill="#FFC857"/>
<path fill-rule="evenodd" clip-rule="evenodd" d="M28.4199 24.2139L11.4075 27.499C11.4027 27.4999 11.3981 27.5012 11.3936 27.503C11.3258 27.5296 10.7603 27.7582 10.4597 28.0865C10.1535 28.4209 9.99939 28.84 9.9155 29.154C9.83523 29.4545 9.90858 34.853 9.91505 35.3181C9.91537 35.3409 9.90636 35.3591 9.8902 35.3751L9.79246 35.4719C9.77654 35.4877 9.76761 35.5089 9.76765 35.5313C9.76793 35.6747 9.76896 36.2308 9.76889 36.5939C9.76889 36.602 9.77006 36.6101 9.77261 36.6178C9.83039 36.7935 9.96246 36.8455 9.99278 36.8553C9.99699 36.8567 10.0013 36.8574 10.0057 36.8578L13.2961 37.1439C13.338 37.1475 13.3709 37.1816 13.374 37.2236C13.3929 37.4735 13.4803 38.2986 13.8299 38.6993C14.5823 39.5616 16.0932 39.6291 16.7604 38.6993C16.9436 38.444 17.0489 37.9895 17.083 37.8218C17.0907 37.7839 17.1225 37.7556 17.1612 37.7561C17.2621 37.7573 17.4558 37.7722 17.5754 37.862C17.6254 37.8994 19.1627 37.8866 19.4854 37.8835C19.5213 37.8832 19.5524 37.9054 19.5653 37.9389C19.6285 38.1037 19.8299 38.5898 20.0887 38.8249C20.7548 39.4299 21.7562 39.546 22.3913 38.9086C22.707 38.5917 22.9358 37.9342 23.0005 37.7332C23.0119 37.6979 23.0446 37.6736 23.0818 37.6736H23.2818C23.3133 37.6736 23.3421 37.6912 23.3564 37.7193L23.8533 38.695C23.8941 38.7753 23.9749 38.8276 24.0649 38.8319L27.7458 39.01C27.785 39.0119 27.8177 39.0403 27.8264 39.0785C27.8405 39.1404 27.8666 39.2421 27.9091 39.365C28.0075 39.65 28.194 40.0494 28.5232 40.332C29.4607 41.1369 30.8885 41.1274 31.7482 40.2483C31.8944 40.0987 31.9945 39.8652 32.0618 39.6412C32.1305 39.4126 32.165 39.1939 32.1793 39.085C32.1847 39.0437 32.2187 39.0118 32.2604 39.0099L35.7016 38.8489C35.7401 38.8471 35.7751 38.8717 35.7879 38.908C35.8628 39.1201 36.042 39.7721 36.6242 40.0767L32.0618 39.6412C31.9945 39.8652 31.8944 40.0987 31.7482 40.2483C30.8885 41.1274 29.4607 41.1369 28.5232 40.332C28.194 40.0494 28.0075 39.65 27.9091 39.365L22.3913 38.9086C21.7562 39.546 20.7548 39.4299 20.0887 38.8249L16.7604 38.6993C16.0932 39.6291 14.5823 39.5616 13.8299 38.6993L10.3747 38.7579C10.3747 38.7579 8.05121 35.7018 7.48603 30.678C7.38137 25.6542 7.66851 23.1504 9.53739 19.1651C11.2748 15.46 15.0265 10.6036 15.0265 10.6036C14.9057 9.45236 14.6659 8.57319 15.0636 7.10791C15.0636 7.10791 9.53739 12.8644 7.15585 18.579C5.64855 22.0747 4.87282 24.8275 5.01596 28.9615C5.16664 33.3131 5.89832 35.9568 8.21864 39.6412C10.4964 43.2581 13.1858 45.4484 16.2777 47.0472C20.9666 49.4719 25.6137 49.7338 29.3396 49.0777C33.3125 48.3781 37.6731 46.4486 41.1416 42.463C43.7831 39.4278 45.374 36.3742 46.2531 31.6659C46.7346 28.2988 46.5467 24.4651 45.0809 20.4838C43.4691 15.1041 35.059 7.10791 35.059 7.10791C35.059 7.10791 35.5428 7.98708 35.4357 9.2849C35.3684 10.1013 35.3101 10.6036 35.3101 10.6036C35.3101 10.6036 41.7526 16.9253 42.9667 21.9491C44.0552 25.5914 44.2855 27.4529 43.7831 31.6659C43.3226 34.2365 41.8992 37.2508 41.8992 37.2508C41.8992 37.2508 41.9701 38.1974 41.648 38.5905C41.4134 38.8767 40.8316 39.0929 40.8316 39.0929L39.8687 40.2441L38.6337 40.286C39.5756 39.8046 39.812 38.7912 39.8264 38.53C39.8289 38.4843 39.8648 38.4461 39.9105 38.4437L40.6234 38.4062C40.6234 38.4062 41.1677 38.3643 41.1677 37.9248C41.1677 37.499 41.1678 37.0144 41.1678 36.661C41.1678 36.6392 41.1598 36.6174 41.1416 36.6052C41.0898 36.5707 41.0206 36.5649 40.963 36.5681C40.9075 36.5712 40.8538 36.53 40.8538 36.4745V34.9461C40.8538 34.9361 40.852 34.9264 40.8485 34.9171C40.5683 34.1814 39.9664 33.8845 39.7677 33.8042C39.7302 33.789 39.7058 33.7513 39.7086 33.7109C39.7232 33.4974 39.7377 32.8395 39.4081 32.4404C38.972 31.8527 37.2996 31.1963 36.9881 31.0777C36.9576 31.0661 36.9364 31.038 36.9338 31.0054L36.6943 27.9708C36.6903 27.9209 36.7306 27.8792 36.7804 27.8841C36.9911 27.9051 37.4818 27.9851 37.4404 28.2749C37.4323 28.3316 37.3469 28.3207 37.2703 28.2988C37.2115 28.2819 37.148 28.3238 37.1485 28.3849L37.1678 30.5435C37.1681 30.5768 37.1882 30.6068 37.2194 30.6184C37.2995 30.6481 37.4586 30.7007 37.587 30.703C37.722 30.7055 37.8925 30.6496 37.9764 30.6185C38.0079 30.6068 38.0279 30.5766 38.0279 30.543V28.6726C38.0467 28.0096 37.8739 28.4264 37.8785 28.0724C37.8789 28.0413 37.8691 28.0103 37.8493 27.9864C37.6942 27.7996 37.6017 27.7189 37.3085 27.6609C37.2652 27.6523 37.2342 27.6131 37.2361 27.569C37.251 27.2312 37.2388 25.874 36.1635 25.0722C35.4728 24.4023 34.0652 24.0248 32.5855 23.8372C30.9651 23.6316 28.4199 24.2139 28.4199 24.2139ZM28.3573 24.8838C28.3573 24.8838 30.1142 24.1302 32.7936 24.4651C33.9658 24.6745 35.1589 24.8629 36.207 25.8676C36.6429 26.2697 36.6573 27.1099 36.6502 27.3759C36.649 27.4219 36.6095 27.456 36.5636 27.4529L28.2735 26.8933C28.2735 26.8933 27.3301 26.8305 27.1417 27.0398C27.0579 27.1329 26.8329 27.3787 26.8329 27.3787L26.0223 27.4775C25.9802 27.4826 25.9486 27.5183 25.9486 27.5606V31.7246C25.9486 31.7725 25.9886 31.8106 26.0363 31.8083L26.7899 31.7723C26.8345 31.7702 26.8696 31.7334 26.8696 31.6887V30.1518C26.8696 30.1084 26.8363 30.0718 26.7947 30.0593C26.7475 30.0451 26.6867 30.0187 26.6394 29.9704C26.549 29.878 26.5347 29.6564 26.5347 29.6564V28.0865C26.5347 28.0865 26.5189 27.8785 26.6394 27.7725C26.6824 27.7346 26.6853 27.6869 26.7153 27.671C26.7202 27.6684 26.7259 27.6676 26.7316 27.667L26.9534 27.6469L27.2914 27.6103C27.3168 27.6069 27.3392 27.5922 27.3524 27.5703L27.3929 27.4794C27.4251 27.4257 27.4965 27.4592 27.5295 27.5125L27.7167 27.815C27.7249 27.8283 27.7293 27.8435 27.7293 27.8591V29.9994C27.7293 30.0211 27.7209 30.0419 27.7065 30.0582C27.6556 30.1159 27.5358 30.2635 27.52 30.389C27.4829 30.6829 27.7052 30.9752 28.0014 30.9752H29.0846C29.1634 30.9752 29.2004 31.0766 29.142 31.1295C28.9887 31.2681 28.7736 31.4782 28.6503 31.6659C28.4198 32.017 28.3072 32.6007 28.2953 32.6649C28.2946 32.6689 28.2942 32.6728 28.2941 32.6769L28.2536 34.1418C28.253 34.1648 28.2618 34.1871 28.278 34.2033L28.399 34.3244L28.6441 34.059C28.6482 34.0545 28.6528 34.0505 28.6579 34.047L28.9223 33.8639C28.9223 33.8639 28.8164 32.7754 28.9851 32.2311C29.0913 31.9262 29.3117 31.7102 29.549 31.5586C29.9634 31.2941 30.4294 31.2264 30.4294 31.2264H35.4034C35.4079 31.2264 35.412 31.2267 35.4164 31.2274C35.5534 31.2505 37.8938 31.6599 39.0327 32.8382C39.2264 32.994 39.1683 34.6371 39.1594 34.8637C39.1587 34.881 39.1632 34.8974 39.1739 34.9112C39.1963 34.9401 39.2398 34.9885 39.2839 34.9942C39.3127 34.9979 39.3487 34.9843 39.3748 34.9716C39.3974 34.9606 39.411 34.9378 39.4137 34.9128L39.457 34.5088C39.4658 34.4268 39.5334 34.3626 39.6154 34.3719C39.6654 34.3776 39.7202 34.3883 39.7653 34.4081C40.0637 34.5386 40.279 34.9349 40.3224 35.0199C40.328 35.0307 40.3306 35.0424 40.3308 35.0545L40.3328 35.2035L40.3453 36.1246L40.3505 36.5038C40.3511 36.5491 40.3156 36.5867 40.2704 36.5886L31.2309 36.9798C31.1909 36.9816 31.1554 36.9557 31.1447 36.9171C31.0403 36.5388 30.4562 34.66 29.1946 34.8058C28.1291 34.929 27.6872 35.7478 27.4779 36.7735C27.4075 37.1184 27.3813 38.1727 27.3749 38.4854C27.3739 38.5335 27.3328 38.5707 27.2848 38.5672L24.2597 38.3469C24.2305 38.3447 24.2045 38.3274 24.1912 38.3013L23.5855 37.1098C23.5719 37.083 23.5451 37.0656 23.5151 37.0641L15.7825 36.6723C15.7426 36.6703 15.7097 36.6415 15.7028 36.6021C15.6416 36.2534 15.3134 34.6552 14.4369 34.6384C13.4785 34.6199 13.2018 36.1109 13.1494 36.4674C13.143 36.5105 13.1057 36.5423 13.0621 36.5412L10.8554 36.4826C10.81 36.4814 10.7739 36.4443 10.7739 36.3989V35.5385C10.7739 35.4922 10.7364 35.4547 10.6902 35.4547H10.439C10.3927 35.4547 10.3552 35.42 10.3552 35.3737L10.3552 35.3332L10.3552 35.3291C10.3553 35.2142 10.3553 35.0255 10.3555 34.7849C10.3557 34.5489 10.356 34.263 10.3565 33.9476C10.3568 33.774 10.3571 33.5914 10.3575 33.4033C10.3581 33.1456 10.3588 32.8775 10.3597 32.6079C10.3603 32.4332 10.3609 32.2579 10.3617 32.0843C10.3671 30.8041 10.3772 29.6188 10.3957 29.4889C10.4376 29.1959 10.4903 28.9238 10.8158 28.5051C11.1087 28.1283 11.5261 28.0446 11.5261 28.0446L28.3573 24.8838ZM32.5597 29.4273L29.9258 30.4728L32.6398 30.5538C32.6888 30.5553 32.7285 30.5145 32.7259 30.4656L32.6742 29.5006C32.6711 29.4434 32.6129 29.4061 32.5597 29.4273ZM36.0597 28.0847L33.2901 29.153C33.2562 29.1661 33.2346 29.1996 33.2367 29.2359L33.3125 30.5431C33.315 30.5863 33.35 30.6204 33.3932 30.6219L36.2996 30.7208C36.3498 30.7225 36.3902 30.6799 36.3859 30.6299L36.1733 28.1557C36.1685 28.1001 36.1117 28.0646 36.0597 28.0847ZM29.3396 39.6412C29.7789 39.6412 30.135 38.9946 30.135 38.1969C30.135 37.3992 29.7789 36.7525 29.3396 36.7525C28.9003 36.7525 28.5442 37.3992 28.5442 38.1969C28.5442 38.9946 28.9003 39.6412 29.3396 39.6412ZM14.4356 38.3016C14.7824 38.3016 15.0636 37.7861 15.0636 37.1503C15.0636 36.5144 14.7824 35.999 14.4356 35.999C14.0888 35.999 13.8076 36.5144 13.8076 37.1503C13.8076 37.7861 14.0888 38.3016 14.4356 38.3016ZM19.271 39.993C15.9144 39.6611 10.6902 39.01 10.6902 39.01C10.6902 39.01 12.0913 42.1841 18.9361 43.1747C22.4947 43.6897 27.3058 42.463 27.372 41.856C27.39 41.542 26.7841 41.3745 26.7841 41.3745C26.7841 41.3745 24.7764 40.5372 19.271 39.993ZM29.7582 43.1747C25.7811 45.1625 18.9361 44.8702 18.9361 44.8702C18.9361 44.8702 27.7458 46.2937 31.1447 42.6305C31.8748 41.6048 29.7582 41.1861 29.7582 41.1861C29.7582 41.1861 32.0618 42.0234 29.7582 43.1747ZM33.6936 43.6771C31.7482 45.7243 25.6137 47.0472 25.6137 47.0472C25.6137 47.0472 31.0352 46.9426 35.0446 44.3679C36.8589 43.2027 39.2839 40.8303 39.2839 40.8303L33.2121 41.1861C33.2121 41.1861 35.1729 42.1204 33.6936 43.6771Z" fill="#1F1F1F"/>
<path d="M40.2502 32.5828C40.4177 32.9387 40.2502 33.1689 40.3758 33.3364C40.4859 33.4832 40.8157 33.6074 41.0038 33.8807C41.0826 33.9951 41.1713 34.2365 41.1713 34.2365C41.1713 34.2365 42.2179 31.3059 42.176 28.6726C42.176 25.403 41.879 23.5757 40.5642 20.6513C38.6594 16.1926 35.059 12.8644 35.059 12.8644L34.8496 13.7435L34.535 14.7064C34.535 14.7064 38.5709 18.0303 40.1246 23.3934C41.1233 26.8407 40.8538 29.153 40.2502 32.5828Z" fill="#1F1F1F"/>
<path d="M37.9476 27.0985C37.9476 27.0985 38.3064 27.5385 38.471 27.8841C38.7415 28.4525 38.7222 29.4848 38.7222 29.4848C38.7222 29.4848 39.1083 25.2752 37.3197 21.677C35.5404 18.0975 33.3425 16.4438 33.3425 16.4438L33.0285 16.9043L32.7259 17.2602C32.7259 17.2602 35.1636 19.2069 36.5033 22.2003C37.3775 24.1537 37.9476 27.0985 37.9476 27.0985Z" fill="#1F1F1F"/>
<path d="M12.7448 26.5124C12.7448 26.5124 12.9888 26.4026 13.1635 26.3659C13.3411 26.3285 13.6449 26.324 13.6449 26.324C13.6449 26.324 13.7558 24.461 15.2777 21.5095C16.6592 18.8301 18.0199 17.5742 18.0199 17.5742C18.0199 17.5742 17.8524 17.3649 17.7687 17.2602C17.6762 17.1446 17.4756 16.8206 17.4756 16.8206C17.4756 16.8206 16.2615 17.7835 14.5032 20.9443C12.7448 24.1051 12.7448 26.5124 12.7448 26.5124Z" fill="#1F1F1F"/>
<path d="M9.24911 29.108C9.24911 29.108 9.45678 28.1927 9.81429 27.7474C10.0757 27.4218 10.6516 27.0776 10.6516 27.0776C10.6516 27.0776 10.7353 24.3662 12.0913 21.3002C13.7659 17.5136 16.2824 14.7064 16.2824 14.7064L15.9057 13.8901L15.5917 12.8644C15.5917 12.8644 12.4213 16.9253 10.7353 20.8397C8.85098 25.2146 9.24911 29.108 9.24911 29.108Z" fill="#1F1F1F"/>
<path d="M26.0666 23.676C30.1045 18.4649 33.877 14.2769 33.877 10.5557C33.877 8.28671 33.083 6.13051 31.4792 4.5261C29.8754 2.92168 27.7531 2.00049 25.485 2.00049C23.2169 2.00049 21.0417 2.90184 19.4379 4.50625C17.8341 6.11066 16.9321 8.28341 16.9321 10.5524C16.9321 14.2769 21.0251 18.8805 24.7816 23.676C24.9734 23.8997 25.1892 23.9797 25.421 23.9797C25.6527 23.9797 25.9005 23.8903 26.0666 23.676Z" fill="#1F1F1F"/>
<circle cx="25.3877" cy="10.5211" r="3.75644" fill="white"/>
<path d="M59.9809 34.216C59.2929 34.216 58.7649 34.032 58.3969 33.664C58.0289 33.28 57.8449 32.744 57.8449 32.056V20.08C57.8449 19.376 58.0289 18.84 58.3969 18.472C58.7809 18.104 59.3169 17.92 60.0049 17.92H65.8849C67.8049 17.92 69.2609 18.336 70.2529 19.168C71.2449 19.984 71.7409 21.176 71.7409 22.744C71.7409 23.8 71.5089 24.688 71.0449 25.408C70.5809 26.128 69.9009 26.672 69.0049 27.04C68.1089 27.408 67.0289 27.592 65.7649 27.592L65.9329 27.16H67.0609C67.4129 27.16 67.7009 27.16 67.9249 27.16C68.1649 27.16 68.3729 27.208 68.5489 27.304C68.7409 27.4 68.9409 27.592 69.1489 27.88C69.3569 28.152 69.6209 28.576 69.9409 29.152L71.1889 31.456C71.4449 31.904 71.5569 32.344 71.5249 32.776C71.5089 33.192 71.3489 33.536 71.0449 33.808C70.7409 34.08 70.2769 34.216 69.6529 34.216C69.0609 34.216 68.5729 34.096 68.1889 33.856C67.8209 33.6 67.4849 33.208 67.1809 32.68L64.9729 28.624C64.8449 28.368 64.7329 28.176 64.6369 28.048C64.5409 27.904 64.4129 27.8 64.2529 27.736C64.0929 27.672 63.8369 27.64 63.4849 27.64H62.0929V32.056C62.0929 32.744 61.9089 33.28 61.5409 33.664C61.1889 34.032 60.6689 34.216 59.9809 34.216ZM62.0929 24.832H65.1169C65.9969 24.832 66.6449 24.688 67.0609 24.4C67.4769 24.112 67.6849 23.608 67.6849 22.888C67.6849 22.184 67.4769 21.688 67.0609 21.4C66.6449 21.096 65.9969 20.944 65.1169 20.944H62.0929V24.832ZM77.5291 34.216C76.8731 34.216 76.3691 34.016 76.0171 33.616C75.6651 33.216 75.4891 32.656 75.4891 31.936V24.304C75.4891 23.568 75.6651 23 76.0171 22.6C76.3691 22.184 76.8731 21.976 77.5291 21.976C78.1691 21.976 78.6651 22.184 79.0171 22.6C79.3691 23 79.5451 23.568 79.5451 24.304V31.936C79.5451 32.656 79.3691 33.216 79.0171 33.616C78.6811 34.016 78.1851 34.216 77.5291 34.216ZM77.5291 20.728C76.9051 20.728 76.3771 20.512 75.9451 20.08C75.5131 19.648 75.2971 19.12 75.2971 18.496C75.2971 17.856 75.5131 17.328 75.9451 16.912C76.3771 16.48 76.9051 16.264 77.5291 16.264C78.1371 16.264 78.6571 16.48 79.0891 16.912C79.5371 17.328 79.7611 17.856 79.7611 18.496C79.7611 19.12 79.5371 19.648 79.0891 20.08C78.6571 20.512 78.1371 20.728 77.5291 20.728ZM87.8144 34.264C86.8064 34.264 85.9184 34.016 85.1504 33.52C84.3824 33.024 83.7744 32.312 83.3264 31.384C82.8944 30.456 82.6784 29.36 82.6784 28.096C82.6784 26.816 82.8944 25.72 83.3264 24.808C83.7584 23.88 84.3584 23.168 85.1264 22.672C85.9104 22.176 86.8064 21.928 87.8144 21.928C88.7104 21.928 89.5104 22.144 90.2144 22.576C90.9184 22.992 91.3984 23.536 91.6544 24.208H91.3664V19.792C91.3664 19.104 91.5424 18.584 91.8944 18.232C92.2464 17.88 92.7584 17.704 93.4304 17.704C94.0864 17.704 94.5904 17.88 94.9424 18.232C95.3104 18.584 95.4944 19.104 95.4944 19.792V32.128C95.4944 32.8 95.3184 33.32 94.9664 33.688C94.6304 34.04 94.1264 34.216 93.4544 34.216C92.7984 34.216 92.2944 34.04 91.9424 33.688C91.5904 33.32 91.4144 32.8 91.4144 32.128V30.688L91.6784 31.816C91.4544 32.552 90.9824 33.144 90.2624 33.592C89.5584 34.04 88.7424 34.264 87.8144 34.264ZM89.1104 31.216C89.5744 31.216 89.9744 31.104 90.3104 30.88C90.6624 30.656 90.9344 30.32 91.1264 29.872C91.3344 29.408 91.4384 28.816 91.4384 28.096C91.4384 27.008 91.2224 26.216 90.7904 25.72C90.3584 25.224 89.7984 24.976 89.1104 24.976C88.6624 24.976 88.2624 25.088 87.9104 25.312C87.5744 25.52 87.3024 25.856 87.0944 26.32C86.9024 26.768 86.8064 27.36 86.8064 28.096C86.8064 29.184 87.0224 29.976 87.4544 30.472C87.8864 30.968 88.4384 31.216 89.1104 31.216ZM105.338 34.264C104.01 34.28 102.842 34.032 101.834 33.52C100.826 32.992 100.034 32.264 99.4583 31.336C98.8983 30.408 98.6183 29.328 98.6183 28.096C98.6183 27.184 98.7783 26.352 99.0983 25.6C99.4183 24.848 99.8583 24.2 100.418 23.656C100.994 23.112 101.658 22.688 102.41 22.384C103.178 22.08 104.018 21.928 104.93 21.928C106.13 21.928 107.162 22.176 108.026 22.672C108.906 23.152 109.578 23.776 110.042 24.544C110.522 25.312 110.762 26.112 110.762 26.944C110.762 27.456 110.626 27.848 110.354 28.12C110.098 28.376 109.762 28.56 109.346 28.672C108.93 28.784 108.506 28.88 108.074 28.96C107.546 29.072 106.986 29.152 106.394 29.2C105.802 29.248 105.146 29.28 104.426 29.296C103.722 29.312 102.922 29.328 102.026 29.344L102.17 27.04C102.81 27.04 103.45 27.04 104.09 27.04C104.746 27.04 105.37 27.008 105.962 26.944C106.57 26.864 107.122 26.744 107.618 26.584L107.21 26.872C107.21 26.264 107.002 25.776 106.586 25.408C106.186 25.024 105.674 24.832 105.05 24.832C104.538 24.832 104.098 24.928 103.73 25.12C103.362 25.312 103.074 25.608 102.866 26.008C102.674 26.392 102.578 26.88 102.578 27.472V27.88C102.578 28.68 102.698 29.336 102.938 29.848C103.178 30.36 103.514 30.736 103.946 30.976C104.378 31.2 104.914 31.312 105.554 31.312C105.954 31.312 106.346 31.248 106.73 31.12C107.114 30.992 107.482 30.808 107.834 30.568C108.122 30.36 108.41 30.264 108.698 30.28C109.002 30.296 109.258 30.4 109.466 30.592C109.69 30.784 109.834 31.024 109.898 31.312C109.978 31.6 109.946 31.912 109.802 32.248C109.674 32.568 109.402 32.88 108.986 33.184C108.554 33.488 108.026 33.744 107.402 33.952C106.794 34.16 106.106 34.264 105.338 34.264ZM116.247 34.216C115.559 34.216 115.031 34.032 114.663 33.664C114.295 33.28 114.111 32.744 114.111 32.056V20.08C114.111 19.376 114.295 18.84 114.663 18.472C115.047 18.104 115.583 17.92 116.271 17.92H122.127C123.087 17.92 123.911 18.056 124.599 18.328C125.303 18.584 125.879 18.944 126.327 19.408C126.791 19.872 127.135 20.408 127.359 21.016C127.583 21.624 127.695 22.288 127.695 23.008C127.695 24 127.487 24.904 127.071 25.72C126.671 26.52 126.055 27.16 125.223 27.64C124.407 28.104 123.375 28.336 122.127 28.336H118.335V32.056C118.335 32.744 118.159 33.28 117.807 33.664C117.471 34.032 116.951 34.216 116.247 34.216ZM118.335 25.072H121.167C122.031 25.072 122.671 24.896 123.087 24.544C123.519 24.192 123.735 23.68 123.735 23.008C123.735 22.592 123.639 22.232 123.447 21.928C123.271 21.624 122.991 21.384 122.607 21.208C122.223 21.032 121.743 20.944 121.167 20.944H118.335V25.072ZM132.813 34.216C132.157 34.216 131.653 34.016 131.301 33.616C130.949 33.216 130.773 32.656 130.773 31.936V24.304C130.773 23.568 130.949 23 131.301 22.6C131.653 22.184 132.157 21.976 132.813 21.976C133.453 21.976 133.949 22.184 134.301 22.6C134.653 23 134.829 23.568 134.829 24.304V31.936C134.829 32.656 134.653 33.216 134.301 33.616C133.965 34.016 133.469 34.216 132.813 34.216ZM132.813 20.728C132.189 20.728 131.661 20.512 131.229 20.08C130.797 19.648 130.581 19.12 130.581 18.496C130.581 17.856 130.797 17.328 131.229 16.912C131.661 16.48 132.189 16.264 132.813 16.264C133.421 16.264 133.941 16.48 134.373 16.912C134.821 17.328 135.045 17.856 135.045 18.496C135.045 19.12 134.821 19.648 134.373 20.08C133.941 20.512 133.421 20.728 132.813 20.728ZM140.579 34.216C139.923 34.216 139.411 34.024 139.043 33.64C138.675 33.256 138.491 32.736 138.491 32.08V24.064C138.491 23.376 138.667 22.856 139.019 22.504C139.387 22.152 139.899 21.976 140.555 21.976C141.195 21.976 141.683 22.152 142.019 22.504C142.355 22.856 142.523 23.376 142.523 24.064V25.24L142.259 24.28C142.643 23.528 143.187 22.952 143.891 22.552C144.611 22.136 145.427 21.928 146.339 21.928C147.283 21.928 148.059 22.112 148.667 22.48C149.275 22.848 149.731 23.408 150.035 24.16C150.339 24.896 150.491 25.84 150.491 26.992V32.08C150.491 32.736 150.315 33.256 149.963 33.64C149.611 34.024 149.099 34.216 148.427 34.216C147.771 34.216 147.259 34.024 146.891 33.64C146.539 33.256 146.363 32.736 146.363 32.08V27.16C146.363 26.424 146.235 25.896 145.979 25.576C145.723 25.256 145.339 25.096 144.827 25.096C144.155 25.096 143.619 25.312 143.219 25.744C142.819 26.16 142.619 26.728 142.619 27.448V32.08C142.619 32.736 142.451 33.256 142.115 33.64C141.779 34.024 141.267 34.216 140.579 34.216ZM159.935 38.8C159.055 38.8 158.239 38.712 157.487 38.536C156.735 38.36 156.079 38.112 155.519 37.792C155.119 37.568 154.839 37.296 154.679 36.976C154.519 36.672 154.447 36.36 154.463 36.04C154.495 35.72 154.599 35.432 154.775 35.176C154.967 34.936 155.207 34.768 155.495 34.672C155.783 34.576 156.103 34.608 156.455 34.768C157.143 35.072 157.727 35.296 158.207 35.44C158.687 35.584 159.127 35.656 159.527 35.656C160.535 35.656 161.279 35.424 161.759 34.96C162.255 34.496 162.503 33.824 162.503 32.944V31.36H162.719C162.463 32.048 161.967 32.608 161.231 33.04C160.495 33.472 159.687 33.688 158.807 33.688C157.767 33.688 156.855 33.448 156.071 32.968C155.303 32.472 154.703 31.784 154.271 30.904C153.855 30.024 153.647 28.992 153.647 27.808C153.647 26.928 153.767 26.128 154.007 25.408C154.247 24.688 154.591 24.072 155.039 23.56C155.487 23.032 156.031 22.632 156.671 22.36C157.311 22.072 158.023 21.928 158.807 21.928C159.719 21.928 160.535 22.144 161.255 22.576C161.975 23.008 162.447 23.56 162.671 24.232L162.455 25.168V24.064C162.455 23.376 162.631 22.856 162.983 22.504C163.335 22.152 163.831 21.976 164.471 21.976C165.111 21.976 165.599 22.152 165.935 22.504C166.287 22.856 166.463 23.376 166.463 24.064V32.464C166.463 34.496 165.903 36.056 164.783 37.144C163.679 38.248 162.063 38.8 159.935 38.8ZM160.079 30.64C160.575 30.64 160.999 30.528 161.351 30.304C161.703 30.08 161.975 29.76 162.167 29.344C162.359 28.912 162.455 28.4 162.455 27.808C162.455 26.912 162.239 26.216 161.807 25.72C161.375 25.224 160.799 24.976 160.079 24.976C159.599 24.976 159.183 25.088 158.831 25.312C158.479 25.536 158.199 25.864 157.991 26.296C157.799 26.712 157.703 27.216 157.703 27.808C157.703 28.4 157.799 28.912 157.991 29.344C158.199 29.76 158.479 30.08 158.831 30.304C159.183 30.528 159.599 30.64 160.079 30.64Z" fill="#FFC857"/>
</svg>
