<svg width="163" height="51" viewBox="0 0 163 51" fill="none" xmlns="http://www.w3.org/2000/svg">
<path d="M10.9093 29.5219L11.9978 29.3949C12.0476 29.3891 12.0913 29.428 12.0913 29.4781V31.5442C12.0913 31.5888 12.0563 31.6256 12.0117 31.6278L10.9232 31.6822C10.8754 31.6846 10.8353 31.6465 10.8353 31.5986V29.6051C10.8353 29.5626 10.8671 29.5269 10.9093 29.5219Z" fill="#333333"/>
<path d="M12.5419 29.2786L13.6722 29.144C13.722 29.1381 13.7659 29.177 13.7659 29.2271V31.4152C13.7659 31.4598 13.7309 31.4966 13.6864 31.4989L12.556 31.5565C12.5082 31.559 12.468 31.5208 12.468 31.4729V29.3617C12.468 29.3193 12.4998 29.2836 12.5419 29.2786Z" fill="#333333"/>
<path d="M14.2586 29.0382L15.5145 28.8925C15.5643 28.8867 15.6079 28.9256 15.6079 28.9757V31.3268C15.6079 31.3715 15.5729 31.4082 15.5284 31.4105L14.2724 31.4729C14.2246 31.4753 14.1845 31.4372 14.1845 31.3893V29.1214C14.1845 29.0789 14.2164 29.0431 14.2586 29.0382Z" fill="#333333"/>
<path d="M16.0587 28.7558L17.3984 28.5995C17.4482 28.5937 17.4919 28.6326 17.4919 28.6827V31.1967C17.4919 31.2413 17.4569 31.2781 17.4123 31.2803L16.0726 31.3473C16.0248 31.3497 15.9847 31.3116 15.9847 31.2637V28.839C15.9847 28.7965 16.0165 28.7607 16.0587 28.7558Z" fill="#333333"/>
<path d="M17.985 28.5103L19.4503 28.3477C19.4999 28.3422 19.5432 28.3811 19.5432 28.431V31.0268C19.5432 31.0715 19.5081 31.1083 19.4635 31.1104L17.9982 31.1801C17.9505 31.1823 17.9105 31.1442 17.9105 31.0964V28.5935C17.9105 28.5509 17.9426 28.515 17.985 28.5103Z" fill="#333333"/>
<path d="M20.037 28.2284L21.7116 28.054C21.761 28.0488 21.804 28.0876 21.804 28.1373V30.8964C21.804 30.9412 21.7687 30.978 21.724 30.98L20.0494 31.0547C20.0017 31.0569 19.9619 31.0188 19.9619 30.9711V28.3116C19.9619 28.2688 19.9943 28.2328 20.037 28.2284Z" fill="#333333"/>
<path d="M22.2974 27.9039L24.0139 27.7194C24.0634 27.7141 24.1065 27.7529 24.1065 27.8027V30.7244C24.1065 30.7692 24.0714 30.806 24.0267 30.8081L22.3102 30.8872C22.2625 30.8894 22.2226 30.8513 22.2226 30.8035V27.9871C22.2226 27.9443 22.2549 27.9084 22.2974 27.9039Z" fill="#333333"/>
<path d="M24.1484 31.7331V31.3153C24.1484 31.267 24.1076 31.2287 24.0594 31.2317L10.3617 32.0841C10.3609 32.2577 10.3603 32.433 10.3597 32.6077L24.0695 31.8167C24.1138 31.8142 24.1484 31.7775 24.1484 31.7331Z" fill="#1F1F1F"/>
<path d="M24.062 32.9662L10.3575 33.4031C10.3571 33.5912 10.3568 33.7737 10.3565 33.9473L24.0667 33.6144C24.1121 33.6133 24.1484 33.5761 24.1484 33.5307V33.0499C24.1484 33.0027 24.1093 32.9647 24.062 32.9662Z" fill="#1F1F1F"/>
<path d="M13.1312 34.7846H10.3555C10.3553 35.0253 10.3553 35.2139 10.3552 35.3289H13.1023C13.1461 35.3289 13.1824 35.2952 13.1858 35.2516L13.2147 34.8748C13.2184 34.8262 13.18 34.7846 13.1312 34.7846Z" fill="#1F1F1F"/>
<path d="M15.6288 34.8273L24.0653 34.8887C24.1113 34.889 24.1484 34.9264 24.1484 34.9724V35.4943C24.1484 35.5413 24.1097 35.5791 24.0626 35.578L15.7079 35.3724C15.6693 35.3714 15.6363 35.3442 15.6281 35.3064L15.5463 34.9287C15.535 34.8763 15.5751 34.8269 15.6288 34.8273Z" fill="#1F1F1F"/>
<path d="M24.7746 32.3748L25.5281 32.3583C25.5751 32.3573 25.6137 32.3951 25.6137 32.4421V37.7152C25.6137 37.7615 25.5762 37.799 25.53 37.799H24.7764C24.7301 37.799 24.6927 37.7615 24.6927 37.7152V32.4586C24.6927 32.413 24.729 32.3758 24.7746 32.3748Z" fill="#1F1F1F"/>
<path d="M26.0305 32.3748L26.7841 32.3583C26.831 32.3573 26.8696 32.3951 26.8696 32.4421V37.7152C26.8696 37.7615 26.8322 37.799 26.7859 37.799H26.0323C25.9861 37.799 25.9486 37.7615 25.9486 37.7152V32.4586C25.9486 32.413 25.985 32.3758 26.0305 32.3748Z" fill="#1F1F1F"/>
<path d="M24.7667 27.6408L25.5203 27.5529C25.57 27.5471 25.6137 27.586 25.6137 27.636V31.69C25.6137 31.7347 25.5785 31.7716 25.5338 31.7736L24.7802 31.8082C24.7325 31.8104 24.6927 31.7723 24.6927 31.7246V27.7239C24.6927 27.6815 24.7245 27.6457 24.7667 27.6408Z" fill="#1F1F1F"/>
<path fill-rule="evenodd" clip-rule="evenodd" d="M28.3573 24.8835C28.3573 24.8835 30.1142 24.13 32.7936 24.4649C33.9658 24.6742 35.1589 24.8626 36.207 25.8674C36.6429 26.2695 36.6573 27.1096 36.6502 27.3756C36.649 27.4216 36.6095 27.4557 36.5636 27.4527L28.2735 26.8931C28.2735 26.8931 27.3301 26.8303 27.1417 27.0396C27.0579 27.1326 26.8329 27.3785 26.8329 27.3785L26.0223 27.4772C25.9802 27.4823 25.9486 27.518 25.9486 27.5604V31.7244C25.9486 31.7722 25.9886 31.8103 26.0363 31.808L26.7899 31.7721C26.8345 31.77 26.8696 31.7331 26.8696 31.6885V30.1515C26.8696 30.1081 26.8363 30.0716 26.7947 30.0591C26.7475 30.0449 26.6867 30.0185 26.6394 29.9702C26.549 29.8778 26.5347 29.6562 26.5347 29.6562V28.0862C26.5347 28.0862 26.5189 27.8783 26.6394 27.7722C26.6824 27.7344 26.6853 27.6867 26.7153 27.6708C26.7202 27.6681 26.7259 27.6673 26.7316 27.6668L26.9534 27.6466L27.2914 27.61C27.3168 27.6067 27.3392 27.592 27.3524 27.5701L27.3929 27.4792C27.4251 27.4254 27.4965 27.459 27.5295 27.5123L27.7167 27.8148C27.7249 27.828 27.7293 27.8433 27.7293 27.8589V29.9991C27.7293 30.0208 27.7209 30.0416 27.7065 30.0579C27.6556 30.1157 27.5358 30.2633 27.52 30.3888C27.4829 30.6827 27.7052 30.9749 28.0014 30.9749H29.0846C29.1634 30.9749 29.2004 31.0763 29.142 31.1292C28.9887 31.2679 28.7736 31.478 28.6503 31.6657C28.4198 32.0168 28.3072 32.6004 28.2953 32.6647C28.2946 32.6687 28.2942 32.6725 28.2941 32.6766L28.2536 34.1416C28.253 34.1646 28.2618 34.1868 28.278 34.2031L28.399 34.3241L28.6441 34.0588C28.6482 34.0543 28.6528 34.0502 28.6579 34.0468L28.9223 33.8636C28.9223 33.8636 28.8164 32.7751 28.9851 32.2309C29.0913 31.926 29.3117 31.7099 29.549 31.5584C29.9634 31.2938 30.4294 31.2261 30.4294 31.2261H35.4034C35.4079 31.2261 35.412 31.2264 35.4164 31.2272C35.5534 31.2503 37.8938 31.6596 39.0327 32.8379C39.2264 32.9938 39.1683 34.6369 39.1594 34.8635C39.1587 34.8808 39.1632 34.8972 39.1739 34.9109C39.1963 34.9399 39.2398 34.9883 39.2839 34.994C39.3127 34.9977 39.3487 34.984 39.3748 34.9714C39.3974 34.9604 39.411 34.9376 39.4137 34.9126L39.457 34.5086C39.4658 34.4265 39.5334 34.3623 39.6154 34.3717C39.6654 34.3774 39.7202 34.3881 39.7653 34.4079C40.0637 34.5384 40.279 34.9347 40.3224 35.0197C40.328 35.0305 40.3306 35.0421 40.3308 35.0542L40.3328 35.2033L40.3453 36.1243L40.3505 36.5036C40.3511 36.5489 40.3156 36.5864 40.2704 36.5884L31.2309 36.9796C31.1909 36.9813 31.1554 36.9554 31.1447 36.9169C31.0403 36.5385 30.4562 34.6598 29.1946 34.8056C28.1291 34.9287 27.6872 35.7475 27.4779 36.7732C27.4075 37.1182 27.3813 38.1725 27.3749 38.4851C27.3739 38.5333 27.3328 38.5705 27.2848 38.567L24.2597 38.3466C24.2305 38.3445 24.2045 38.3272 24.1912 38.301L23.5855 37.1095C23.5719 37.0828 23.5451 37.0654 23.5151 37.0638L15.7825 36.6721C15.7426 36.67 15.7097 36.6412 15.7028 36.6019C15.6416 36.2531 15.3134 34.655 14.4369 34.6381C13.4785 34.6197 13.2018 36.1107 13.1494 36.4671C13.143 36.5103 13.1057 36.5421 13.0621 36.5409L10.8554 36.4823C10.81 36.4811 10.7739 36.444 10.7739 36.3986V35.5382C10.7739 35.492 10.7364 35.4545 10.6902 35.4545H10.439C10.3927 35.4545 10.3552 35.4197 10.3552 35.3735L10.3552 35.3329L10.3552 35.3289C10.3553 35.2139 10.3553 35.0253 10.3555 34.7846C10.3557 34.5487 10.356 34.2627 10.3565 33.9473C10.3568 33.7737 10.3571 33.5912 10.3575 33.4031C10.3581 33.1454 10.3588 32.8773 10.3597 32.6077C10.3603 32.433 10.3609 32.2577 10.3617 32.0841C10.3671 30.8038 10.3772 29.6185 10.3957 29.4887C10.4376 29.1957 10.4903 28.9235 10.8158 28.5049C11.1087 28.1281 11.5261 28.0444 11.5261 28.0444L28.3573 24.8835ZM32.5597 29.427L29.9258 30.4725L32.6398 30.5536C32.6888 30.555 32.7285 30.5143 32.7259 30.4654L32.6742 29.5004C32.6711 29.4432 32.6129 29.4059 32.5597 29.427ZM36.0597 28.0845L33.2901 29.1527C33.2562 29.1658 33.2346 29.1994 33.2367 29.2357L33.3125 30.5428C33.315 30.586 33.35 30.6202 33.3932 30.6217L36.2996 30.7205C36.3498 30.7222 36.3902 30.6797 36.3859 30.6297L36.1733 28.1554C36.1685 28.0999 36.1117 28.0644 36.0597 28.0845ZM29.3396 39.641C29.7789 39.641 30.135 38.9943 30.135 38.1966C30.135 37.399 29.7789 36.7523 29.3396 36.7523C28.9003 36.7523 28.5442 37.399 28.5442 38.1966C28.5442 38.9943 28.9003 39.641 29.3396 39.641ZM14.4356 38.3013C14.7824 38.3013 15.0636 37.7859 15.0636 37.15C15.0636 36.5142 14.7824 35.9987 14.4356 35.9987C14.0888 35.9987 13.8076 36.5142 13.8076 37.15C13.8076 37.7859 14.0888 38.3013 14.4356 38.3013Z" fill="#1F1F1F"/>
<path fill-rule="evenodd" clip-rule="evenodd" d="M30.6375 25.0069V26.5109C30.6375 26.5592 30.5968 26.5975 30.5486 26.5945L28.6739 26.4773C28.6453 26.4755 28.6197 26.4592 28.6084 26.4328C28.5583 26.3157 28.4418 25.9653 28.6253 25.5592C28.6271 25.5554 28.6291 25.5516 28.6315 25.5481C29.0151 24.9746 30.2314 24.9272 30.5568 24.925C30.6022 24.9247 30.6375 24.9616 30.6375 25.0069ZM29.9257 26.2442C30.1569 26.2442 30.3444 26.0567 30.3444 25.8255C30.3444 25.5943 30.1569 25.4069 29.9257 25.4069C29.6945 25.4069 29.5071 25.5943 29.5071 25.8255C29.5071 26.0567 29.6945 26.2442 29.9257 26.2442Z" fill="#1F1F1F"/>
<path fill-rule="evenodd" clip-rule="evenodd" d="M34.535 25.4271L34.5909 26.8801C34.5925 26.9231 34.6265 26.9579 34.6694 26.9605L36.234 27.0559C36.2772 27.0585 36.3149 27.0279 36.318 26.9848C36.3299 26.8215 36.3323 26.4262 36.1218 26.1186C35.778 25.6372 34.9259 25.41 34.6323 25.3441C34.5801 25.3324 34.5329 25.3736 34.535 25.4271ZM35.2426 26.7465C35.4738 26.7465 35.6612 26.5591 35.6612 26.3279C35.6612 26.0967 35.4738 25.9092 35.2426 25.9092C35.0114 25.9092 34.8239 26.0967 34.8239 26.3279C34.8239 26.5591 35.0114 26.7465 35.2426 26.7465Z" fill="#1F1F1F"/>
<path d="M31.1261 25.1426L34.1219 25.4005C34.1642 25.4041 34.1971 25.4388 34.1984 25.4812L34.2349 26.6322C34.2365 26.682 34.1944 26.7222 34.1447 26.7183L31.1124 26.4805C31.0688 26.4771 31.0352 26.4407 31.0352 26.397V25.226C31.0352 25.1769 31.0772 25.1384 31.1261 25.1426Z" fill="white"/>
<path d="M33.2901 29.1527L36.0597 28.0845C36.1117 28.0644 36.1685 28.0999 36.1733 28.1554L36.3859 30.6297C36.3902 30.6797 36.3498 30.7222 36.2996 30.7205L33.3932 30.6217C33.35 30.6202 33.315 30.586 33.3125 30.5428L33.2367 29.2357C33.2346 29.1994 33.2562 29.1658 33.2901 29.1527Z" fill="white"/>
<path d="M29.9258 30.4725L32.5597 29.427C32.6129 29.4059 32.6711 29.4432 32.6742 29.5004L32.7259 30.4654C32.7285 30.5143 32.6888 30.555 32.6398 30.5536L29.9258 30.4725Z" fill="white"/>
<path d="M30.4294 31.2261C30.4294 31.2261 29.9634 31.2938 29.549 31.5584L33.7355 32.7542L30.4294 31.2261Z" fill="white"/>
<path d="M28.6441 34.0588L28.399 34.3241H28.9119C28.9188 34.3241 28.9249 34.3235 28.9316 34.3218C29.0442 34.2941 30.1539 34.0265 30.8887 34.052C31.8319 34.0848 33.2331 34.6381 33.2331 34.6381C33.2331 34.6381 32.1441 33.7021 31.2864 33.5287C30.3724 33.3439 28.9223 33.8636 28.9223 33.8636L28.6579 34.0468C28.6528 34.0502 28.6482 34.0543 28.6441 34.0588Z" fill="white"/>
<path d="M31.6227 35.3927L31.7519 36.2489C31.7611 36.3098 31.8131 36.3551 31.8748 36.3557L33.5666 36.3739C33.6441 36.3748 33.7039 36.3059 33.6921 36.2292L33.5632 35.3912C33.5539 35.331 33.5027 35.2861 33.4417 35.2848L31.7496 35.2484C31.6717 35.2467 31.611 35.3156 31.6227 35.3927Z" fill="white"/>
<path d="M40.3328 35.2033L39.5797 35.3132C39.518 35.3222 39.4723 35.3751 39.4723 35.4375V35.9265C39.4723 35.9912 39.5215 36.0453 39.5859 36.0515L40.3453 36.1243L40.3328 35.2033Z" fill="white"/>
<path d="M28.3573 24.8835L11.5261 28.0444C11.5261 28.0444 11.1087 28.1281 10.8158 28.5049L26.8501 26.0139L27.3124 25.8732C27.325 25.8694 27.3365 25.8626 27.346 25.8535L28.3573 24.8835Z" fill="white"/>
<path fill-rule="evenodd" clip-rule="evenodd" d="M24.1484 31.3153V31.7331C24.1484 31.7775 24.1138 31.8142 24.0695 31.8167L10.3597 32.6077C10.3588 32.8773 10.3581 33.1454 10.3575 33.4031L24.062 32.9662C24.1093 32.9647 24.1484 33.0027 24.1484 33.0499V33.5307C24.1484 33.5761 24.1121 33.6133 24.0667 33.6144L10.3565 33.9473C10.356 34.2627 10.3557 34.5487 10.3555 34.7846H13.1312C13.18 34.7846 13.2184 34.8262 13.2147 34.8748L13.1858 35.2516C13.1824 35.2952 13.1461 35.3289 13.1023 35.3289H10.3552L10.3552 35.3329L10.3552 35.3735C10.3552 35.4197 10.3927 35.4545 10.439 35.4545H10.6902C10.7364 35.4545 10.7739 35.492 10.7739 35.5382V36.3986C10.7739 36.444 10.81 36.4811 10.8554 36.4823L13.0621 36.5409C13.1057 36.5421 13.143 36.5103 13.1494 36.4671C13.2018 36.1107 13.4785 34.6197 14.4369 34.6381C15.3134 34.655 15.6416 36.2531 15.7028 36.6019C15.7097 36.6412 15.7426 36.67 15.7825 36.6721L23.5151 37.0638C23.5451 37.0654 23.5719 37.0828 23.5855 37.1095L24.1912 38.301C24.2045 38.3272 24.2305 38.3445 24.2597 38.3466L27.2848 38.567C27.3328 38.5705 27.3739 38.5333 27.3749 38.4851C27.3813 38.1725 27.4075 37.1182 27.4779 36.7732C27.6872 35.7475 28.1291 34.9287 29.1946 34.8056C30.4562 34.6598 31.0403 36.5385 31.1447 36.9169C31.1554 36.9554 31.1909 36.9813 31.2309 36.9796L40.2704 36.5884C40.3156 36.5864 40.3511 36.5489 40.3505 36.5036L40.3453 36.1243L39.5859 36.0515C39.5215 36.0453 39.4723 35.9912 39.4723 35.9265V35.4375C39.4723 35.3751 39.518 35.3222 39.5797 35.3132L40.3328 35.2033L40.3308 35.0542C40.3306 35.0421 40.328 35.0305 40.3224 35.0197C40.279 34.9347 40.0637 34.5384 39.7653 34.4079C39.7202 34.3881 39.6654 34.3774 39.6154 34.3717C39.5334 34.3623 39.4658 34.4265 39.457 34.5086L39.4137 34.9126C39.411 34.9376 39.3974 34.9604 39.3748 34.9714C39.3487 34.984 39.3127 34.9977 39.2839 34.994C39.2398 34.9883 39.1963 34.9399 39.1739 34.9109C39.1632 34.8972 39.1587 34.8808 39.1594 34.8635C39.1683 34.6369 39.2264 32.9938 39.0327 32.8379C37.8938 31.6596 35.5534 31.2503 35.4164 31.2272C35.412 31.2264 35.4079 31.2261 35.4034 31.2261H30.4294L33.7355 32.7542L29.549 31.5584C29.3117 31.7099 29.0913 31.926 28.9851 32.2309C28.8164 32.7751 28.9223 33.8636 28.9223 33.8636C28.9223 33.8636 30.3724 33.3439 31.2864 33.5287C32.1441 33.7021 33.2331 34.6381 33.2331 34.6381C33.2331 34.6381 31.8319 34.0848 30.8887 34.052C30.1539 34.0265 29.0442 34.2941 28.9316 34.3218C28.9249 34.3235 28.9188 34.3241 28.9119 34.3241H28.399L28.278 34.2031C28.2618 34.1868 28.253 34.1646 28.2536 34.1416L28.2941 32.6766C28.2942 32.6725 28.2946 32.6687 28.2953 32.6647C28.3072 32.6004 28.4198 32.0168 28.6503 31.6657C28.7736 31.478 28.9887 31.2679 29.142 31.1292C29.2004 31.0763 29.1634 30.9749 29.0846 30.9749H28.0014C27.7052 30.9749 27.4829 30.6827 27.52 30.3888C27.5358 30.2633 27.6556 30.1157 27.7065 30.0579C27.7209 30.0416 27.7293 30.0208 27.7293 29.9991V27.8589C27.7293 27.8433 27.7249 27.828 27.7167 27.8148L27.5295 27.5123C27.4965 27.459 27.4251 27.4254 27.3929 27.4792L27.3524 27.5701C27.3392 27.592 27.3168 27.6067 27.2914 27.61L26.9534 27.6466L26.7316 27.6668C26.7259 27.6673 26.7202 27.6681 26.7153 27.6708C26.6853 27.6867 26.6824 27.7344 26.6394 27.7722C26.5189 27.8783 26.5347 28.0862 26.5347 28.0862V29.6562C26.5347 29.6562 26.549 29.8778 26.6394 29.9702C26.6867 30.0185 26.7475 30.0449 26.7947 30.0591C26.8363 30.0716 26.8696 30.1081 26.8696 30.1515V31.6885C26.8696 31.7331 26.8345 31.77 26.7899 31.7721L26.0363 31.808C25.9886 31.8103 25.9486 31.7722 25.9486 31.7244V27.5604C25.9486 27.518 25.9802 27.4823 26.0223 27.4772L26.8329 27.3785C26.8329 27.3785 27.0579 27.1326 27.1417 27.0396C27.3301 26.8303 28.2735 26.8931 28.2735 26.8931L36.5636 27.4527C36.6095 27.4557 36.649 27.4216 36.6502 27.3756C36.6573 27.1096 36.6429 26.2695 36.207 25.8674C35.1589 24.8626 33.9658 24.6742 32.7936 24.4649C30.1142 24.13 28.3573 24.8835 28.3573 24.8835L27.346 25.8535C27.3365 25.8626 27.325 25.8694 27.3124 25.8732L26.8501 26.0139L10.8158 28.5049C10.4903 28.9235 10.4376 29.1957 10.3957 29.4887C10.3772 29.6185 10.3671 30.8038 10.3617 32.0841L24.0594 31.2317C24.1076 31.2287 24.1484 31.267 24.1484 31.3153ZM11.9978 29.3949L10.9093 29.5219C10.8671 29.5269 10.8353 29.5626 10.8353 29.6051V31.5986C10.8353 31.6465 10.8754 31.6846 10.9232 31.6822L12.0117 31.6278C12.0563 31.6256 12.0913 31.5888 12.0913 31.5442V29.4781C12.0913 29.428 12.0476 29.3891 11.9978 29.3949ZM13.6722 29.144L12.5419 29.2786C12.4998 29.2836 12.468 29.3193 12.468 29.3617V31.4729C12.468 31.5208 12.5082 31.559 12.556 31.5565L13.6864 31.4989C13.7309 31.4966 13.7659 31.4598 13.7659 31.4152V29.2271C13.7659 29.177 13.722 29.1381 13.6722 29.144ZM15.5145 28.8925L14.2586 29.0382C14.2164 29.0431 14.1845 29.0789 14.1845 29.1214V31.3893C14.1845 31.4372 14.2246 31.4753 14.2724 31.4729L15.5284 31.4105C15.5729 31.4082 15.6079 31.3715 15.6079 31.3268V28.9757C15.6079 28.9256 15.5643 28.8867 15.5145 28.8925ZM17.3984 28.5995L16.0587 28.7558C16.0165 28.7607 15.9847 28.7965 15.9847 28.839V31.2637C15.9847 31.3116 16.0248 31.3497 16.0726 31.3473L17.4123 31.2803C17.4569 31.2781 17.4919 31.2413 17.4919 31.1967V28.6827C17.4919 28.6326 17.4482 28.5937 17.3984 28.5995ZM19.4503 28.3477L17.985 28.5103C17.9426 28.515 17.9105 28.5509 17.9105 28.5935V31.0964C17.9105 31.1442 17.9505 31.1823 17.9982 31.1801L19.4635 31.1104C19.5081 31.1083 19.5432 31.0715 19.5432 31.0268V28.431C19.5432 28.3811 19.4999 28.3422 19.4503 28.3477ZM21.7116 28.054L20.037 28.2284C19.9943 28.2328 19.9619 28.2688 19.9619 28.3116V30.9711C19.9619 31.0188 20.0017 31.0569 20.0494 31.0547L21.724 30.98C21.7687 30.978 21.804 30.9412 21.804 30.8964V28.1373C21.804 28.0876 21.761 28.0488 21.7116 28.054ZM24.0139 27.7194L22.2974 27.9039C22.2549 27.9084 22.2226 27.9443 22.2226 27.9871V30.8035C22.2226 30.8513 22.2625 30.8894 22.3102 30.8872L24.0267 30.8081C24.0714 30.806 24.1065 30.7692 24.1065 30.7244V27.8027C24.1065 27.7529 24.0634 27.7141 24.0139 27.7194ZM25.5203 27.5529L24.7667 27.6408C24.7245 27.6457 24.6927 27.6815 24.6927 27.7239V31.7246C24.6927 31.7723 24.7325 31.8104 24.7802 31.8082L25.5338 31.7736C25.5785 31.7716 25.6137 31.7347 25.6137 31.69V27.636C25.6137 27.586 25.57 27.5471 25.5203 27.5529ZM25.5281 32.3583L24.7746 32.3748C24.729 32.3758 24.6927 32.413 24.6927 32.4586V37.7152C24.6927 37.7615 24.7301 37.799 24.7764 37.799H25.53C25.5762 37.799 25.6137 37.7615 25.6137 37.7152V32.4421C25.6137 32.3951 25.5751 32.3573 25.5281 32.3583ZM26.7841 32.3583L26.0305 32.3748C25.985 32.3758 25.9486 32.413 25.9486 32.4586V37.7152C25.9486 37.7615 25.9861 37.799 26.0323 37.799H26.7859C26.8322 37.799 26.8696 37.7615 26.8696 37.7152V32.4421C26.8696 32.3951 26.831 32.3573 26.7841 32.3583ZM24.0653 34.8887L15.6288 34.8273C15.5751 34.8269 15.535 34.8763 15.5463 34.9287L15.6281 35.3064C15.6363 35.3442 15.6693 35.3714 15.7079 35.3724L24.0626 35.578C24.1097 35.5791 24.1484 35.5413 24.1484 35.4943V34.9724C24.1484 34.9264 24.1113 34.889 24.0653 34.8887ZM34.1219 25.4005L31.1261 25.1426C31.0772 25.1384 31.0352 25.1769 31.0352 25.226V26.397C31.0352 26.4407 31.0688 26.4771 31.1124 26.4805L34.1447 26.7183C34.1944 26.7222 34.2365 26.682 34.2349 26.6322L34.1984 25.4812C34.1971 25.4388 34.1642 25.4041 34.1219 25.4005ZM31.7519 36.2489L31.6227 35.3927C31.611 35.3156 31.6717 35.2467 31.7496 35.2484L33.4417 35.2848C33.5027 35.2861 33.5539 35.331 33.5632 35.3912L33.6921 36.2292C33.7039 36.3059 33.6441 36.3748 33.5666 36.3739L31.8748 36.3557C31.8131 36.3551 31.7611 36.3098 31.7519 36.2489ZM34.8031 33.2147C34.9496 33.0891 35.2217 33.11 35.2217 33.11H38.5709C38.5709 33.11 38.7593 33.11 38.8431 33.2356C38.9268 33.3612 38.9268 33.4868 38.9268 33.4868V35.9359C38.9268 35.9359 38.9268 36.1104 38.8012 36.2081C38.6756 36.3057 38.4454 36.2918 38.4454 36.2918L35.0446 36.3335C35.0371 36.3336 35.0298 36.3327 35.0226 36.3307C34.9771 36.3178 34.7992 36.2637 34.7403 36.1871C34.6661 36.0908 34.6775 35.8941 34.6775 35.8941L34.6566 33.6334C34.6566 33.6334 34.6566 33.3403 34.8031 33.2147ZM30.6375 26.5109V25.0069C30.6375 24.9616 30.6022 24.9247 30.5568 24.925C30.2314 24.9272 29.0151 24.9746 28.6315 25.5481C28.6291 25.5516 28.6271 25.5554 28.6253 25.5592C28.4418 25.9653 28.5583 26.3157 28.6084 26.4328C28.6197 26.4592 28.6453 26.4755 28.6739 26.4773L30.5486 26.5945C30.5968 26.5975 30.6375 26.5592 30.6375 26.5109ZM34.5909 26.8801L34.535 25.4271C34.5329 25.3736 34.5801 25.3324 34.6323 25.3441C34.9259 25.41 35.778 25.6372 36.1218 26.1186C36.3323 26.4262 36.3299 26.8215 36.318 26.9848C36.3149 27.0279 36.2772 27.0585 36.234 27.0559L34.6694 26.9605C34.6265 26.9579 34.5925 26.9231 34.5909 26.8801Z" fill="#FFC857"/>
<path d="M30.3444 25.8255C30.3444 26.0567 30.1569 26.2442 29.9257 26.2442C29.6945 26.2442 29.5071 26.0567 29.5071 25.8255C29.5071 25.5943 29.6945 25.4069 29.9257 25.4069C30.1569 25.4069 30.3444 25.5943 30.3444 25.8255Z" fill="#EF6C00"/>
<path d="M35.6612 26.3279C35.6612 26.5591 35.4738 26.7465 35.2426 26.7465C35.0114 26.7465 34.8239 26.5591 34.8239 26.3279C34.8239 26.0967 35.0114 25.9092 35.2426 25.9092C35.4738 25.9092 35.6612 26.0967 35.6612 26.3279Z" fill="#EF6C00"/>
<path d="M15.0636 37.15C15.0636 37.7859 14.7824 38.3013 14.4356 38.3013C14.0888 38.3013 13.8076 37.7859 13.8076 37.15C13.8076 36.5142 14.0888 35.9987 14.4356 35.9987C14.7824 35.9987 15.0636 36.5142 15.0636 37.15Z" fill="white"/>
<path d="M30.135 38.1966C30.135 38.9943 29.7789 39.641 29.3396 39.641C28.9003 39.641 28.5442 38.9943 28.5442 38.1966C28.5442 37.399 28.9003 36.7523 29.3396 36.7523C29.7789 36.7523 30.135 37.399 30.135 38.1966Z" fill="white"/>
<path d="M35.1799 33.8008V33.9892C35.1799 34.0354 35.2174 34.0729 35.2636 34.0729H38.3616C38.4079 34.0729 38.4454 34.0354 38.4454 33.9892V33.8008C38.4454 33.7546 38.4079 33.7171 38.3616 33.7171H35.2636C35.2174 33.7171 35.1799 33.7546 35.1799 33.8008Z" fill="#FFC857"/>
<path d="M35.1799 34.659V34.8056C35.1799 34.8518 35.2174 34.8893 35.2636 34.8893H38.3616C38.4079 34.8893 38.4454 34.8518 38.4454 34.8056V34.659C38.4454 34.6128 38.4079 34.5753 38.3616 34.5753H35.2636C35.2174 34.5753 35.1799 34.6128 35.1799 34.659Z" fill="#FFC857"/>
<path fill-rule="evenodd" clip-rule="evenodd" d="M35.2217 33.11C35.2217 33.11 34.9496 33.0891 34.8031 33.2147C34.6566 33.3403 34.6566 33.6334 34.6566 33.6334L34.6775 35.8941C34.6775 35.8941 34.6661 36.0908 34.7403 36.1871C34.7992 36.2637 34.9771 36.3178 35.0226 36.3307C35.0298 36.3327 35.0371 36.3336 35.0446 36.3335L38.4454 36.2918C38.4454 36.2918 38.6756 36.3057 38.8012 36.2081C38.9268 36.1104 38.9268 35.9359 38.9268 35.9359V33.4868C38.9268 33.4868 38.9268 33.3612 38.8431 33.2356C38.7593 33.11 38.5709 33.11 38.5709 33.11H35.2217ZM35.1799 33.9892V33.8008C35.1799 33.7546 35.2174 33.7171 35.2636 33.7171H38.3616C38.4079 33.7171 38.4454 33.7546 38.4454 33.8008V33.9892C38.4454 34.0354 38.4079 34.0729 38.3616 34.0729H35.2636C35.2174 34.0729 35.1799 34.0354 35.1799 33.9892ZM35.1799 34.8056V34.659C35.1799 34.6128 35.2174 34.5753 35.2636 34.5753H38.3616C38.4079 34.5753 38.4454 34.6128 38.4454 34.659V34.8056C38.4454 34.8518 38.4079 34.8893 38.3616 34.8893H35.2636C35.2174 34.8893 35.1799 34.8518 35.1799 34.8056ZM35.1799 35.7046V35.4738C35.1799 35.4282 35.2164 35.391 35.262 35.3901L38.36 35.3305C38.4069 35.3296 38.4454 35.3674 38.4454 35.4142V35.6649C38.4454 35.7107 38.4085 35.748 38.3627 35.7486L35.2647 35.7883C35.218 35.7889 35.1799 35.7513 35.1799 35.7046Z" fill="#1F1F1F"/>
<path d="M35.1799 35.4738V35.7046C35.1799 35.7513 35.218 35.7889 35.2647 35.7883L38.3627 35.7486C38.4085 35.748 38.4454 35.7107 38.4454 35.6649V35.4142C38.4454 35.3674 38.4069 35.3296 38.36 35.3305L35.262 35.3901C35.2164 35.391 35.1799 35.4282 35.1799 35.4738Z" fill="#FFC857"/>
<path fill-rule="evenodd" clip-rule="evenodd" d="M28.4199 24.2137L11.4075 27.4987C11.4027 27.4996 11.3981 27.5009 11.3936 27.5027C11.3258 27.5294 10.7603 27.7579 10.4597 28.0862C10.1535 28.4207 9.99939 28.8398 9.9155 29.1538C9.83523 29.4542 9.90858 34.8527 9.91505 35.3179C9.91537 35.3407 9.90636 35.3589 9.8902 35.3749L9.79246 35.4717C9.77654 35.4875 9.76761 35.5086 9.76765 35.531C9.76793 35.6744 9.76896 36.2305 9.76889 36.5936C9.76889 36.6018 9.77006 36.6098 9.77261 36.6176C9.83039 36.7932 9.96246 36.8453 9.99278 36.8551C9.99699 36.8565 10.0013 36.8572 10.0057 36.8575L13.2961 37.1437C13.338 37.1473 13.3709 37.1814 13.374 37.2233C13.3929 37.4733 13.4803 38.2984 13.8299 38.699C14.5823 39.5613 16.0932 39.6288 16.7604 38.699C16.9436 38.4438 17.0489 37.9893 17.083 37.8216C17.0907 37.7837 17.1225 37.7554 17.1612 37.7558C17.2621 37.7571 17.4558 37.772 17.5754 37.8617C17.6254 37.8992 19.1627 37.8864 19.4854 37.8833C19.5213 37.8829 19.5524 37.9051 19.5653 37.9387C19.6285 38.1034 19.8299 38.5895 20.0887 38.8246C20.7548 39.4296 21.7562 39.5458 22.3913 38.9084C22.707 38.5915 22.9358 37.934 23.0005 37.733C23.0119 37.6976 23.0446 37.6733 23.0818 37.6733H23.2818C23.3133 37.6733 23.3421 37.691 23.3564 37.7191L23.8533 38.6948C23.8941 38.7751 23.9749 38.8273 24.0649 38.8317L27.7458 39.0098C27.785 39.0117 27.8177 39.04 27.8264 39.0783C27.8405 39.1402 27.8666 39.2418 27.9091 39.3647C28.0075 39.6498 28.194 40.0492 28.5232 40.3318C29.4607 41.1367 30.8885 41.1272 31.7482 40.248C31.8944 40.0985 31.9945 39.8649 32.0618 39.641C32.1305 39.4123 32.165 39.1937 32.1793 39.0848C32.1847 39.0434 32.2187 39.0116 32.2604 39.0096L35.7016 38.8486C35.7401 38.8468 35.7751 38.8714 35.7879 38.9078C35.8628 39.1199 36.042 39.7719 36.6242 40.0764L32.0618 39.641C31.9945 39.8649 31.8944 40.0985 31.7482 40.248C30.8885 41.1272 29.4607 41.1367 28.5232 40.3318C28.194 40.0492 28.0075 39.6498 27.9091 39.3647L22.3913 38.9084C21.7562 39.5458 20.7548 39.4296 20.0887 38.8246L16.7604 38.699C16.0932 39.6288 14.5823 39.5613 13.8299 38.699L10.3747 38.7577C10.3747 38.7577 8.05121 35.7015 7.48603 30.6777C7.38137 25.6539 7.66851 23.1502 9.53739 19.1648C11.2748 15.4598 15.0265 10.6034 15.0265 10.6034C14.9057 9.45212 14.6659 8.57295 15.0636 7.10767C15.0636 7.10767 9.53739 12.8641 7.15585 18.5787C5.64855 22.0744 4.87282 24.8272 5.01596 28.9613C5.16664 33.3128 5.89832 35.9566 8.21864 39.641C10.4964 43.2579 13.1858 45.4482 16.2777 47.047C20.9666 49.4716 25.6137 49.7336 29.3396 49.0774C33.3125 48.3778 37.6731 46.4483 41.1416 42.4628C43.7831 39.4275 45.374 36.3739 46.2531 31.6657C46.7346 28.2985 46.5467 24.4649 45.0809 20.4836C43.4691 15.1039 35.059 7.10767 35.059 7.10767C35.059 7.10767 35.5428 7.98684 35.4357 9.28466C35.3684 10.101 35.3101 10.6034 35.3101 10.6034C35.3101 10.6034 41.7526 16.925 42.9667 21.9489C44.0552 25.5911 44.2855 27.4527 43.7831 31.6657C43.3226 34.2363 41.8992 37.2506 41.8992 37.2506C41.8992 37.2506 41.9701 38.1972 41.648 38.5902C41.4134 38.8765 40.8316 39.0926 40.8316 39.0926L39.8687 40.2439L38.6337 40.2858C39.5756 39.8043 39.812 38.791 39.8264 38.5298C39.8289 38.4841 39.8648 38.4459 39.9105 38.4435L40.6234 38.406C40.6234 38.406 41.1677 38.3641 41.1677 37.9245C41.1677 37.4988 41.1678 37.0142 41.1678 36.6608C41.1678 36.6389 41.1598 36.6171 41.1416 36.605C41.0898 36.5704 41.0206 36.5646 40.963 36.5679C40.9075 36.571 40.8538 36.5298 40.8538 36.4742V34.9458C40.8538 34.9359 40.852 34.9262 40.8485 34.9169C40.5683 34.1812 39.9664 33.8843 39.7677 33.8039C39.7302 33.7887 39.7058 33.7511 39.7086 33.7107C39.7232 33.4972 39.7377 32.8393 39.4081 32.4402C38.972 31.8525 37.2996 31.196 36.9881 31.0775C36.9576 31.0659 36.9364 31.0378 36.9338 31.0052L36.6943 27.9706C36.6903 27.9207 36.7306 27.879 36.7804 27.8839C36.9911 27.9048 37.4818 27.9849 37.4404 28.2746C37.4323 28.3314 37.3469 28.3204 37.2703 28.2985C37.2115 28.2817 37.148 28.3235 37.1485 28.3846L37.1678 30.5432C37.1681 30.5766 37.1882 30.6065 37.2194 30.6181C37.2995 30.6478 37.4586 30.7005 37.587 30.7028C37.722 30.7052 37.8925 30.6494 37.9764 30.6183C38.0079 30.6066 38.0279 30.5763 38.0279 30.5427V28.6723C38.0467 28.0093 37.8739 28.4262 37.8785 28.0721C37.8789 28.0411 37.8691 28.01 37.8493 27.9861C37.6942 27.7994 37.6017 27.7186 37.3085 27.6607C37.2652 27.6521 37.2342 27.6129 37.2361 27.5688C37.251 27.231 37.2388 25.8738 36.1635 25.0719C35.4728 24.4021 34.0652 24.0246 32.5855 23.8369C30.9651 23.6314 28.4199 24.2137 28.4199 24.2137ZM28.3573 24.8835C28.3573 24.8835 30.1142 24.13 32.7936 24.4649C33.9658 24.6742 35.1589 24.8626 36.207 25.8674C36.6429 26.2695 36.6573 27.1096 36.6502 27.3756C36.649 27.4216 36.6095 27.4557 36.5636 27.4527L28.2735 26.8931C28.2735 26.8931 27.3301 26.8303 27.1417 27.0396C27.0579 27.1326 26.8329 27.3785 26.8329 27.3785L26.0223 27.4772C25.9802 27.4823 25.9486 27.518 25.9486 27.5604V31.7244C25.9486 31.7722 25.9886 31.8103 26.0363 31.808L26.7899 31.7721C26.8345 31.77 26.8696 31.7331 26.8696 31.6885V30.1515C26.8696 30.1081 26.8363 30.0716 26.7947 30.0591C26.7475 30.0449 26.6867 30.0185 26.6394 29.9702C26.549 29.8778 26.5347 29.6562 26.5347 29.6562V28.0862C26.5347 28.0862 26.5189 27.8783 26.6394 27.7722C26.6824 27.7344 26.6853 27.6867 26.7153 27.6708C26.7202 27.6681 26.7259 27.6673 26.7316 27.6668L26.9534 27.6466L27.2914 27.61C27.3168 27.6067 27.3392 27.592 27.3524 27.5701L27.3929 27.4792C27.4251 27.4254 27.4965 27.459 27.5295 27.5123L27.7167 27.8148C27.7249 27.828 27.7293 27.8433 27.7293 27.8589V29.9991C27.7293 30.0208 27.7209 30.0416 27.7065 30.0579C27.6556 30.1157 27.5358 30.2633 27.52 30.3888C27.4829 30.6827 27.7052 30.9749 28.0014 30.9749H29.0846C29.1634 30.9749 29.2004 31.0763 29.142 31.1292C28.9887 31.2679 28.7736 31.478 28.6503 31.6657C28.4198 32.0168 28.3072 32.6004 28.2953 32.6647C28.2946 32.6687 28.2942 32.6725 28.2941 32.6766L28.2536 34.1416C28.253 34.1646 28.2618 34.1868 28.278 34.2031L28.399 34.3241L28.6441 34.0588C28.6482 34.0543 28.6528 34.0502 28.6579 34.0468L28.9223 33.8636C28.9223 33.8636 28.8164 32.7751 28.9851 32.2309C29.0913 31.926 29.3117 31.7099 29.549 31.5584C29.9634 31.2938 30.4294 31.2261 30.4294 31.2261H35.4034C35.4079 31.2261 35.412 31.2264 35.4164 31.2272C35.5534 31.2503 37.8938 31.6596 39.0327 32.8379C39.2264 32.9938 39.1683 34.6369 39.1594 34.8635C39.1587 34.8808 39.1632 34.8972 39.1739 34.9109C39.1963 34.9399 39.2398 34.9883 39.2839 34.994C39.3127 34.9977 39.3487 34.984 39.3748 34.9714C39.3974 34.9604 39.411 34.9376 39.4137 34.9126L39.457 34.5086C39.4658 34.4265 39.5334 34.3623 39.6154 34.3717C39.6654 34.3774 39.7202 34.3881 39.7653 34.4079C40.0637 34.5384 40.279 34.9347 40.3224 35.0197C40.328 35.0305 40.3306 35.0421 40.3308 35.0542L40.3328 35.2033L40.3453 36.1243L40.3505 36.5036C40.3511 36.5489 40.3156 36.5864 40.2704 36.5884L31.2309 36.9796C31.1909 36.9813 31.1554 36.9554 31.1447 36.9169C31.0403 36.5385 30.4562 34.6598 29.1946 34.8056C28.1291 34.9287 27.6872 35.7475 27.4779 36.7732C27.4075 37.1182 27.3813 38.1725 27.3749 38.4851C27.3739 38.5333 27.3328 38.5705 27.2848 38.567L24.2597 38.3466C24.2305 38.3445 24.2045 38.3272 24.1912 38.301L23.5855 37.1095C23.5719 37.0828 23.5451 37.0654 23.5151 37.0638L15.7825 36.6721C15.7426 36.67 15.7097 36.6412 15.7028 36.6019C15.6416 36.2531 15.3134 34.655 14.4369 34.6381C13.4785 34.6197 13.2018 36.1107 13.1494 36.4671C13.143 36.5103 13.1057 36.5421 13.0621 36.5409L10.8554 36.4823C10.81 36.4811 10.7739 36.444 10.7739 36.3986V35.5382C10.7739 35.492 10.7364 35.4545 10.6902 35.4545H10.439C10.3927 35.4545 10.3552 35.4197 10.3552 35.3735L10.3552 35.3329L10.3552 35.3289C10.3553 35.2139 10.3553 35.0253 10.3555 34.7846C10.3557 34.5487 10.356 34.2627 10.3565 33.9473C10.3568 33.7737 10.3571 33.5912 10.3575 33.4031C10.3581 33.1454 10.3588 32.8773 10.3597 32.6077C10.3603 32.433 10.3609 32.2577 10.3617 32.0841C10.3671 30.8038 10.3772 29.6185 10.3957 29.4887C10.4376 29.1957 10.4903 28.9235 10.8158 28.5049C11.1087 28.1281 11.5261 28.0444 11.5261 28.0444L28.3573 24.8835ZM32.5597 29.427L29.9258 30.4725L32.6398 30.5536C32.6888 30.555 32.7285 30.5143 32.7259 30.4654L32.6742 29.5004C32.6711 29.4432 32.6129 29.4059 32.5597 29.427ZM36.0597 28.0845L33.2901 29.1527C33.2562 29.1658 33.2346 29.1994 33.2367 29.2357L33.3125 30.5428C33.315 30.586 33.35 30.6202 33.3932 30.6217L36.2996 30.7205C36.3498 30.7222 36.3902 30.6797 36.3859 30.6297L36.1733 28.1554C36.1685 28.0999 36.1117 28.0644 36.0597 28.0845ZM29.3396 39.641C29.7789 39.641 30.135 38.9943 30.135 38.1966C30.135 37.399 29.7789 36.7523 29.3396 36.7523C28.9003 36.7523 28.5442 37.399 28.5442 38.1966C28.5442 38.9943 28.9003 39.641 29.3396 39.641ZM14.4356 38.3013C14.7824 38.3013 15.0636 37.7859 15.0636 37.15C15.0636 36.5142 14.7824 35.9987 14.4356 35.9987C14.0888 35.9987 13.8076 36.5142 13.8076 37.15C13.8076 37.7859 14.0888 38.3013 14.4356 38.3013ZM19.271 39.9927C15.9144 39.6609 10.6902 39.0098 10.6902 39.0098C10.6902 39.0098 12.0913 42.1839 18.9361 43.1745C22.4947 43.6895 27.3058 42.4628 27.372 41.8557C27.39 41.5417 26.7841 41.3743 26.7841 41.3743C26.7841 41.3743 24.7764 40.537 19.271 39.9927ZM29.7582 43.1745C25.7811 45.1622 18.9361 44.87 18.9361 44.87C18.9361 44.87 27.7458 46.2934 31.1447 42.6302C31.8748 41.6045 29.7582 41.1859 29.7582 41.1859C29.7582 41.1859 32.0618 42.0232 29.7582 43.1745ZM33.6936 43.6768C31.7482 45.7241 25.6137 47.047 25.6137 47.047C25.6137 47.047 31.0352 46.9423 35.0446 44.3676C36.8589 43.2025 39.2839 40.83 39.2839 40.83L33.2121 41.1859C33.2121 41.1859 35.1729 42.1201 33.6936 43.6768Z" fill="#1F1F1F"/>
<path d="M40.2502 32.5826C40.4177 32.9384 40.2502 33.1687 40.3758 33.3362C40.4859 33.4829 40.8157 33.6072 41.0038 33.8804C41.0826 33.9949 41.1713 34.2363 41.1713 34.2363C41.1713 34.2363 42.2179 31.3057 42.176 28.6723C42.176 25.4027 41.879 23.5755 40.5642 20.651C38.6594 16.1924 35.059 12.8641 35.059 12.8641L34.8496 13.7433L34.535 14.7062C34.535 14.7062 38.5709 18.0301 40.1246 23.3932C41.1233 26.8405 40.8538 29.1527 40.2502 32.5826Z" fill="#1F1F1F"/>
<path d="M37.9476 27.0983C37.9476 27.0983 38.3064 27.5383 38.471 27.8839C38.7415 28.4522 38.7222 29.4846 38.7222 29.4846C38.7222 29.4846 39.1083 25.275 37.3197 21.6767C35.5404 18.0973 33.3425 16.4436 33.3425 16.4436L33.0285 16.9041L32.7259 17.26C32.7259 17.26 35.1636 19.2067 36.5033 22.2C37.3775 24.1534 37.9476 27.0983 37.9476 27.0983Z" fill="#1F1F1F"/>
<path d="M12.7448 26.5121C12.7448 26.5121 12.9888 26.4024 13.1635 26.3656C13.3411 26.3282 13.6449 26.3238 13.6449 26.3238C13.6449 26.3238 13.7558 24.4608 15.2777 21.5093C16.6592 18.8299 18.0199 17.5739 18.0199 17.5739C18.0199 17.5739 17.8524 17.3646 17.7687 17.26C17.6762 17.1444 17.4756 16.8204 17.4756 16.8204C17.4756 16.8204 16.2615 17.7833 14.5032 20.9441C12.7448 24.1049 12.7448 26.5121 12.7448 26.5121Z" fill="#1F1F1F"/>
<path d="M9.24911 29.1078C9.24911 29.1078 9.45678 28.1925 9.81429 27.7472C10.0757 27.4215 10.6516 27.0773 10.6516 27.0773C10.6516 27.0773 10.7353 24.3659 12.0913 21.2999C13.7659 17.5134 16.2824 14.7062 16.2824 14.7062L15.9057 13.8898L15.5917 12.8641C15.5917 12.8641 12.4213 16.925 10.7353 20.8394C8.85098 25.2143 9.24911 29.1078 9.24911 29.1078Z" fill="#1F1F1F"/>
<path d="M26.0666 23.6759C30.1045 18.4648 33.877 14.2768 33.877 10.5556C33.877 8.28664 33.083 6.13044 31.4792 4.52603C29.8754 2.92162 27.7531 2.00042 25.485 2.00042C23.2169 2.00042 21.0417 2.90177 19.4379 4.50618C17.8341 6.11059 16.9321 8.28334 16.9321 10.5523C16.9321 14.2768 21.0251 18.8804 24.7816 23.6759C24.9734 23.8997 25.1892 23.9796 25.421 23.9796C25.6527 23.9796 25.9005 23.8902 26.0666 23.6759Z" fill="#1F1F1F"/>
<circle cx="25.3877" cy="10.521" r="3.75644" fill="white"/>
<path d="M54.9809 34.216C54.2929 34.216 53.7649 34.032 53.3969 33.664C53.0289 33.28 52.8449 32.744 52.8449 32.056V20.08C52.8449 19.376 53.0289 18.84 53.3969 18.472C53.7809 18.104 54.3169 17.92 55.0049 17.92H60.8849C62.8049 17.92 64.2609 18.336 65.2529 19.168C66.2449 19.984 66.7409 21.176 66.7409 22.744C66.7409 23.8 66.5089 24.688 66.0449 25.408C65.5809 26.128 64.9009 26.672 64.0049 27.04C63.1089 27.408 62.0289 27.592 60.7649 27.592L60.9329 27.16H62.0609C62.4129 27.16 62.7009 27.16 62.9249 27.16C63.1649 27.16 63.3729 27.208 63.5489 27.304C63.7409 27.4 63.9409 27.592 64.1489 27.88C64.3569 28.152 64.6209 28.576 64.9409 29.152L66.1889 31.456C66.4449 31.904 66.5569 32.344 66.5249 32.776C66.5089 33.192 66.3489 33.536 66.0449 33.808C65.7409 34.08 65.2769 34.216 64.6529 34.216C64.0609 34.216 63.5729 34.096 63.1889 33.856C62.8209 33.6 62.4849 33.208 62.1809 32.68L59.9729 28.624C59.8449 28.368 59.7329 28.176 59.6369 28.048C59.5409 27.904 59.4129 27.8 59.2529 27.736C59.0929 27.672 58.8369 27.64 58.4849 27.64H57.0929V32.056C57.0929 32.744 56.9089 33.28 56.5409 33.664C56.1889 34.032 55.6689 34.216 54.9809 34.216ZM57.0929 24.832H60.1169C60.9969 24.832 61.6449 24.688 62.0609 24.4C62.4769 24.112 62.6849 23.608 62.6849 22.888C62.6849 22.184 62.4769 21.688 62.0609 21.4C61.6449 21.096 60.9969 20.944 60.1169 20.944H57.0929V24.832ZM72.5291 34.216C71.8731 34.216 71.3691 34.016 71.0171 33.616C70.6651 33.216 70.4891 32.656 70.4891 31.936V24.304C70.4891 23.568 70.6651 23 71.0171 22.6C71.3691 22.184 71.8731 21.976 72.5291 21.976C73.1691 21.976 73.6651 22.184 74.0171 22.6C74.3691 23 74.5451 23.568 74.5451 24.304V31.936C74.5451 32.656 74.3691 33.216 74.0171 33.616C73.6811 34.016 73.1851 34.216 72.5291 34.216ZM72.5291 20.728C71.9051 20.728 71.3771 20.512 70.9451 20.08C70.5131 19.648 70.2971 19.12 70.2971 18.496C70.2971 17.856 70.5131 17.328 70.9451 16.912C71.3771 16.48 71.9051 16.264 72.5291 16.264C73.1371 16.264 73.6571 16.48 74.0891 16.912C74.5371 17.328 74.7611 17.856 74.7611 18.496C74.7611 19.12 74.5371 19.648 74.0891 20.08C73.6571 20.512 73.1371 20.728 72.5291 20.728ZM82.8144 34.264C81.8064 34.264 80.9184 34.016 80.1504 33.52C79.3824 33.024 78.7744 32.312 78.3264 31.384C77.8944 30.456 77.6784 29.36 77.6784 28.096C77.6784 26.816 77.8944 25.72 78.3264 24.808C78.7584 23.88 79.3584 23.168 80.1264 22.672C80.9104 22.176 81.8064 21.928 82.8144 21.928C83.7104 21.928 84.5104 22.144 85.2144 22.576C85.9184 22.992 86.3984 23.536 86.6544 24.208H86.3664V19.792C86.3664 19.104 86.5424 18.584 86.8944 18.232C87.2464 17.88 87.7584 17.704 88.4304 17.704C89.0864 17.704 89.5904 17.88 89.9424 18.232C90.3104 18.584 90.4944 19.104 90.4944 19.792V32.128C90.4944 32.8 90.3184 33.32 89.9664 33.688C89.6304 34.04 89.1264 34.216 88.4544 34.216C87.7984 34.216 87.2944 34.04 86.9424 33.688C86.5904 33.32 86.4144 32.8 86.4144 32.128V30.688L86.6784 31.816C86.4544 32.552 85.9824 33.144 85.2624 33.592C84.5584 34.04 83.7424 34.264 82.8144 34.264ZM84.1104 31.216C84.5744 31.216 84.9744 31.104 85.3104 30.88C85.6624 30.656 85.9344 30.32 86.1264 29.872C86.3344 29.408 86.4384 28.816 86.4384 28.096C86.4384 27.008 86.2224 26.216 85.7904 25.72C85.3584 25.224 84.7984 24.976 84.1104 24.976C83.6624 24.976 83.2624 25.088 82.9104 25.312C82.5744 25.52 82.3024 25.856 82.0944 26.32C81.9024 26.768 81.8064 27.36 81.8064 28.096C81.8064 29.184 82.0224 29.976 82.4544 30.472C82.8864 30.968 83.4384 31.216 84.1104 31.216ZM100.338 34.264C99.0103 34.28 97.8423 34.032 96.8343 33.52C95.8263 32.992 95.0343 32.264 94.4583 31.336C93.8983 30.408 93.6183 29.328 93.6183 28.096C93.6183 27.184 93.7783 26.352 94.0983 25.6C94.4183 24.848 94.8583 24.2 95.4183 23.656C95.9943 23.112 96.6583 22.688 97.4103 22.384C98.1783 22.08 99.0183 21.928 99.9303 21.928C101.13 21.928 102.162 22.176 103.026 22.672C103.906 23.152 104.578 23.776 105.042 24.544C105.522 25.312 105.762 26.112 105.762 26.944C105.762 27.456 105.626 27.848 105.354 28.12C105.098 28.376 104.762 28.56 104.346 28.672C103.93 28.784 103.506 28.88 103.074 28.96C102.546 29.072 101.986 29.152 101.394 29.2C100.802 29.248 100.146 29.28 99.4263 29.296C98.7223 29.312 97.9223 29.328 97.0263 29.344L97.1703 27.04C97.8103 27.04 98.4503 27.04 99.0903 27.04C99.7463 27.04 100.37 27.008 100.962 26.944C101.57 26.864 102.122 26.744 102.618 26.584L102.21 26.872C102.21 26.264 102.002 25.776 101.586 25.408C101.186 25.024 100.674 24.832 100.05 24.832C99.5383 24.832 99.0983 24.928 98.7303 25.12C98.3623 25.312 98.0743 25.608 97.8663 26.008C97.6743 26.392 97.5783 26.88 97.5783 27.472V27.88C97.5783 28.68 97.6983 29.336 97.9383 29.848C98.1783 30.36 98.5143 30.736 98.9463 30.976C99.3783 31.2 99.9143 31.312 100.554 31.312C100.954 31.312 101.346 31.248 101.73 31.12C102.114 30.992 102.482 30.808 102.834 30.568C103.122 30.36 103.41 30.264 103.698 30.28C104.002 30.296 104.258 30.4 104.466 30.592C104.69 30.784 104.834 31.024 104.898 31.312C104.978 31.6 104.946 31.912 104.802 32.248C104.674 32.568 104.402 32.88 103.986 33.184C103.554 33.488 103.026 33.744 102.402 33.952C101.794 34.16 101.106 34.264 100.338 34.264ZM111.247 34.216C110.559 34.216 110.031 34.032 109.663 33.664C109.295 33.28 109.111 32.744 109.111 32.056V20.08C109.111 19.376 109.295 18.84 109.663 18.472C110.047 18.104 110.583 17.92 111.271 17.92H117.127C118.087 17.92 118.911 18.056 119.599 18.328C120.303 18.584 120.879 18.944 121.327 19.408C121.791 19.872 122.135 20.408 122.359 21.016C122.583 21.624 122.695 22.288 122.695 23.008C122.695 24 122.487 24.904 122.071 25.72C121.671 26.52 121.055 27.16 120.223 27.64C119.407 28.104 118.375 28.336 117.127 28.336H113.335V32.056C113.335 32.744 113.159 33.28 112.807 33.664C112.471 34.032 111.951 34.216 111.247 34.216ZM113.335 25.072H116.167C117.031 25.072 117.671 24.896 118.087 24.544C118.519 24.192 118.735 23.68 118.735 23.008C118.735 22.592 118.639 22.232 118.447 21.928C118.271 21.624 117.991 21.384 117.607 21.208C117.223 21.032 116.743 20.944 116.167 20.944H113.335V25.072ZM127.813 34.216C127.157 34.216 126.653 34.016 126.301 33.616C125.949 33.216 125.773 32.656 125.773 31.936V24.304C125.773 23.568 125.949 23 126.301 22.6C126.653 22.184 127.157 21.976 127.813 21.976C128.453 21.976 128.949 22.184 129.301 22.6C129.653 23 129.829 23.568 129.829 24.304V31.936C129.829 32.656 129.653 33.216 129.301 33.616C128.965 34.016 128.469 34.216 127.813 34.216ZM127.813 20.728C127.189 20.728 126.661 20.512 126.229 20.08C125.797 19.648 125.581 19.12 125.581 18.496C125.581 17.856 125.797 17.328 126.229 16.912C126.661 16.48 127.189 16.264 127.813 16.264C128.421 16.264 128.941 16.48 129.373 16.912C129.821 17.328 130.045 17.856 130.045 18.496C130.045 19.12 129.821 19.648 129.373 20.08C128.941 20.512 128.421 20.728 127.813 20.728ZM135.579 34.216C134.923 34.216 134.411 34.024 134.043 33.64C133.675 33.256 133.491 32.736 133.491 32.08V24.064C133.491 23.376 133.667 22.856 134.019 22.504C134.387 22.152 134.899 21.976 135.555 21.976C136.195 21.976 136.683 22.152 137.019 22.504C137.355 22.856 137.523 23.376 137.523 24.064V25.24L137.259 24.28C137.643 23.528 138.187 22.952 138.891 22.552C139.611 22.136 140.427 21.928 141.339 21.928C142.283 21.928 143.059 22.112 143.667 22.48C144.275 22.848 144.731 23.408 145.035 24.16C145.339 24.896 145.491 25.84 145.491 26.992V32.08C145.491 32.736 145.315 33.256 144.963 33.64C144.611 34.024 144.099 34.216 143.427 34.216C142.771 34.216 142.259 34.024 141.891 33.64C141.539 33.256 141.363 32.736 141.363 32.08V27.16C141.363 26.424 141.235 25.896 140.979 25.576C140.723 25.256 140.339 25.096 139.827 25.096C139.155 25.096 138.619 25.312 138.219 25.744C137.819 26.16 137.619 26.728 137.619 27.448V32.08C137.619 32.736 137.451 33.256 137.115 33.64C136.779 34.024 136.267 34.216 135.579 34.216ZM154.935 38.8C154.055 38.8 153.239 38.712 152.487 38.536C151.735 38.36 151.079 38.112 150.519 37.792C150.119 37.568 149.839 37.296 149.679 36.976C149.519 36.672 149.447 36.36 149.463 36.04C149.495 35.72 149.599 35.432 149.775 35.176C149.967 34.936 150.207 34.768 150.495 34.672C150.783 34.576 151.103 34.608 151.455 34.768C152.143 35.072 152.727 35.296 153.207 35.44C153.687 35.584 154.127 35.656 154.527 35.656C155.535 35.656 156.279 35.424 156.759 34.96C157.255 34.496 157.503 33.824 157.503 32.944V31.36H157.719C157.463 32.048 156.967 32.608 156.231 33.04C155.495 33.472 154.687 33.688 153.807 33.688C152.767 33.688 151.855 33.448 151.071 32.968C150.303 32.472 149.703 31.784 149.271 30.904C148.855 30.024 148.647 28.992 148.647 27.808C148.647 26.928 148.767 26.128 149.007 25.408C149.247 24.688 149.591 24.072 150.039 23.56C150.487 23.032 151.031 22.632 151.671 22.36C152.311 22.072 153.023 21.928 153.807 21.928C154.719 21.928 155.535 22.144 156.255 22.576C156.975 23.008 157.447 23.56 157.671 24.232L157.455 25.168V24.064C157.455 23.376 157.631 22.856 157.983 22.504C158.335 22.152 158.831 21.976 159.471 21.976C160.111 21.976 160.599 22.152 160.935 22.504C161.287 22.856 161.463 23.376 161.463 24.064V32.464C161.463 34.496 160.903 36.056 159.783 37.144C158.679 38.248 157.063 38.8 154.935 38.8ZM155.079 30.64C155.575 30.64 155.999 30.528 156.351 30.304C156.703 30.08 156.975 29.76 157.167 29.344C157.359 28.912 157.455 28.4 157.455 27.808C157.455 26.912 157.239 26.216 156.807 25.72C156.375 25.224 155.799 24.976 155.079 24.976C154.599 24.976 154.183 25.088 153.831 25.312C153.479 25.536 153.199 25.864 152.991 26.296C152.799 26.712 152.703 27.216 152.703 27.808C152.703 28.4 152.799 28.912 152.991 29.344C153.199 29.76 153.479 30.08 153.831 30.304C154.183 30.528 154.599 30.64 155.079 30.64Z" fill="#1F1F1F"/>
</svg>
